<?xml version="1.0" standalone="no"?>
<!DOCTYPE svg PUBLIC "-//W3C//DTD SVG 1.1//EN" "http://www.w3.org/Graphics/SVG/1.1/DTD/svg11.dtd" >
<!--
2013-9-30: Created.
-->
<svg>
<metadata>
Created by iconfont
</metadata>
<defs>

<font id="iconfont" horiz-adv-x="1024" >
  <font-face
    font-family="iconfont"
    font-weight="500"
    font-stretch="normal"
    units-per-em="1024"
    ascent="896"
    descent="-128"
  />
    <missing-glyph />
    
    <glyph glyph-name="pingjia" unicode="&#58959;" d="M820.465288 366.008276C806.370575 366.008276 795.954023 354.561839 795.954023 340.496552L795.954023 3.312184C795.954023-30.262069 769.971494-58.863445 736.426667-58.863445L206.918621-58.863445C173.373793-58.863445 134.355862-30.262069 134.355862 3.312184L134.355862 534.37977C134.355862 568.042299 173.373793 603.882299 206.918621 603.882299L492.049655 603.882299C506.173793 603.882299 517.531954 614.328276 517.531954 628.452413 517.531954 642.576552 506.173793 652.993103 492.049655 652.993103L206.918621 652.993103C139.917241 652.993103 85.333333 601.675402 85.333333 534.37977L85.333333 3.312184C85.333333-63.924599 139.917241-107.974255 206.918621-107.974255L736.426667-107.974255C803.486897-107.974255 844.976552-63.924599 844.976552 3.312184L844.976552 340.496552C844.976552 354.561839 834.56 366.008276 820.465288 366.008276L820.465288 366.008276ZM896.411955 618.771494 809.989885 705.281839C781.623908 733.794943 731.689196 733.794943 703.293793 705.281839L632.761379 622.214253 256.853333 261.695632 232.047816 45.625747 243.994482 35.209196 454.091034 63.869425 813.550345 440.954482 896.411955 508.72092C925.807812 538.205058 925.807812 589.287357 896.411955 618.771494L896.411955 618.771494ZM291.987127 95.413333 298.137011 196.548046 391.326897 103.24046 291.987127 95.413333 291.987127 95.413333ZM436.20046 129.576092 322.206897 243.716781 658.273103 578.694253 770.177471 466.554482 436.20046 129.576092 436.20046 129.576092ZM860.836779 547.415172 810.754942 497.245058 688.787127 619.389425 738.83954 669.588966C743.577011 674.355862 749.903448 676.945288 756.641839 676.945288 763.409655 676.945288 769.706667 674.355862 774.444138 669.588966L860.777933 583.137471C870.635401 573.28 870.635401 557.272643 860.836779 547.415172L860.836779 547.415172Z"  horiz-adv-x="1024" />

    
    <glyph glyph-name="wancheng" unicode="&#58991;" d="M942.51008 126.13632A37.632 37.632 0 1 0 877.9776 164.864c39.40352 65.65888 60.5184 140.8 60.5184 219.136C938.496 619.55072 747.55072 810.496 512 810.496S85.504 619.55072 85.504 384 276.44928-42.496 512-42.496c78.32576 0 153.45664 21.10464 219.10528 60.49792a37.632 37.632 0 0 0 38.72768-64.53248C692.56192-92.89728 604.0576-117.76 512-117.76 234.88512-117.76 10.24 106.88512 10.24 384S234.88512 885.76 512 885.76s501.76-224.64512 501.76-501.76c0-92.07808-24.87296-180.59264-71.24992-257.86368z m-707.56352 46.592c7.7824 1.792 15.6672-0.7168 20.5312-6.4512l2.18112-3.05152c29.4912-45.28128 60.24192-69.3248 106.02496-82.92352 4.63872-0.8192 9.23648-3.96288 12.04224-8.192a19.67104 19.67104 0 0 0-6.2464-27.26912 22.58944 22.58944 0 0 0-5.49888-2.38592l-2.72384-0.512c-3.7888-0.88064-11.76576 2.048-11.8784 2.02752-54.0672 16.4352-91.74016 45.76256-125.6448 97.792l-2.27328 3.91168c-3.74784 9.3184-0.39936 19.51744 7.7824 24.6272 1.6896 1.05472 3.56352 1.81248 5.70368 2.42688z m-26.12224 45.58848c8.31488 1.92512 16.896-1.88416 21.3504-9.4208 2.73408-4.62848 3.584-10.11712 2.38592-15.31904-1.26976-5.3248-4.42368-9.70752-8.89856-12.45184-1.7408-1.04448-3.64544-1.81248-5.72416-2.28352-8.30464-1.92512-16.896 1.88416-21.3504 9.4208-5.632 9.5232-2.77504 21.98528 6.53312 27.66848 1.81248 1.16736 3.72736 1.93536 5.70368 2.38592z m517.92896 317.7472a37.632 37.632 0 0 0 0.04096-53.21728l-250.51136-250.88a37.632 37.632 0 0 0-53.18656-0.07168L297.28768 357.19168a37.632 37.632 0 0 0 53.10464 53.32992l99.18464-98.77504 223.9488 224.27648a37.632 37.632 0 0 0 53.22752 0.04096z"  horiz-adv-x="1024" />

    
    <glyph glyph-name="chulizhong1" unicode="&#58926;" d="M717.696 184.128v14.656l-141.632 155.968a43.84 43.84 0 0 0 0 58.496l141.632 155.968V682.688H306.304v-114.368l131.52-156.224a43.84 43.84 0 0 0 0-56.192l-131.52-156.16v-27.968c48 41.408 101.632 55.808 160.896 43.072 115.2-24.64 222.08-54.72 250.496-30.72zM662.528 384l126.272-139.008c7.264-8.032 11.264-18.496 11.2-29.312v-172.992A41.92 41.92 0 0 0 758.88 0H265.12A41.92 41.92 0 0 0 224 42.688V215.68c0 10.368 3.584 20.288 10.176 28.096L352.256 384l-118.08 140.224A43.584 43.584 0 0 0 224 552.32V725.312C224 748.928 242.432 768 265.152 768h493.696C781.568 768 800 748.928 800 725.312v-172.992a43.52 43.52 0 0 0-11.2-29.312L662.528 384z"  horiz-adv-x="1024" />

    
    <glyph glyph-name="zanting" unicode="&#59150;" d="M250.7 96.6l-17 26.3c-4.3 4.4-10.2 7.1-16.7 7.1-12.9 0-23.4-10.5-23.4-23.4 0-7 3.3-13.1 8.2-17.4 1.8-2.9 3.6-5.9 5.4-8.8 0.2-0.6 0.7-1 1-1.6 2.1-3.4 8.2-8.8 8.2-8.8 3.7-2.4 7.8-4.1 12.4-4.1 12.9 0 23.4 10.5 23.4 23.4C252.2 92 251.5 94.3 250.7 96.6zM441.8 440.4l-15.6 0c-12.9 0-23.4-10.5-23.4-23.4l0-265.2c0-12.9 10.5-23.4 23.4-23.4l15.6 0c12.9 0 23.4 10.5 23.4 23.4L465.2 417C465.2 429.9 454.7 440.4 441.8 440.4zM421.2-29.7c-49.4 15-93.4 42-129.1 77.5 0 0-12.9 11.9-22 11.9-12.9 0-23.4-10.5-23.4-23.4 0-7.5 3.8-13.9 9.3-18.2l-0.2-0.1c40-40.8 89.5-72.1 145.2-90.2 0.3-0.2 0.7-0.2 1-0.4 1.2-0.4 2.2-0.9 3.4-1.2l0.2 0.5c1.6-0.3 3.1-1 4.8-1 12.9 0 22.6 10.5 23.4 23.4C434.8-38.4 421.2-29.7 421.2-29.7zM512 783.6C244.9 783.6 28.4 567.1 28.4 300S244.9-183.6 512-183.6 995.6 32.9 995.6 300 779.1 783.6 512 783.6zM512-121.2C279.4-121.2 90.8 67.4 90.8 300S279.4 721.2 512 721.2 933.2 532.6 933.2 300 744.6-121.2 512-121.2zM613.4 440.4l-15.6 0c-12.9 0-23.4-10.5-23.4-23.4l0-265.2c0-12.9 10.5-23.4 23.4-23.4l15.6 0c12.9 0 23.4 10.5 23.4 23.4L636.8 417C636.8 429.9 626.3 440.4 613.4 440.4z"  horiz-adv-x="1024" />

    
    <glyph glyph-name="quanbu1-copy-copy" unicode="&#58924;" d="M517.7344 877.48736c-271.97824 0-492.45696-220.48256-492.45696-492.45696 0-271.97056 220.48-492.4544 492.45696-492.4544 271.96544 0 492.45184 220.48512 492.45184 492.4544C1010.18624 657.0047999999999 789.69984 877.48736 517.7344 877.48736zM479.4752 204.81664c0-33.3568-27.04512-60.39808-60.4096-60.39808l-88.59136 0c-33.35808 0-60.4032 27.04128-60.4032 60.39808l0 84.57344c0 33.35936 27.04256 60.39936 60.4032 60.39936l88.5952 0c33.36064 0 60.40832-27.04 60.40832-60.39936L479.4752 204.81664 479.4752 204.81664zM479.4752 480.67328c0-33.35936-27.04512-60.40448-60.4096-60.40448l-88.59136 0c-33.35808 0-60.4032 27.04512-60.4032 60.40448l0 84.57088c0 33.35936 27.04256 60.4032 60.4032 60.4032l88.5952 0c33.36064 0 60.40832-27.04384 60.40832-60.4032L479.4752 480.67328 479.4752 480.67328zM765.3952 204.81664c0-33.3568-27.04384-60.39808-60.4032-60.39808l-88.59776 0c-33.35936 0-60.40192 27.04128-60.40192 60.39808l0 84.57344c0 33.35936 27.04384 60.39936 60.40192 60.39936l88.59776 0c33.3568 0 60.4032-27.04 60.4032-60.39936L765.3952 204.81664 765.3952 204.81664zM765.3952 480.67328c0-33.35936-27.04384-60.40448-60.4032-60.40448l-88.59776 0c-33.35936 0-60.40192 27.04512-60.40192 60.40448l0 84.57088c0 33.35936 27.04384 60.4032 60.40192 60.4032l88.59776 0c33.3568 0 60.4032-27.04384 60.4032-60.4032L765.3952 480.67328 765.3952 480.67328z"  horiz-adv-x="1024" />

    
    <glyph glyph-name="quanbu" unicode="&#58922;" d="M406.87050781 419.44541016h-217.36318359c-43.93652344 0-79.68164063 35.75917969-79.68164063 79.71152343v217.3491211c0 43.95146484 35.74599609 79.70800781 79.68164063 79.70800781h217.36318359c43.96113281 0 79.72382812-35.75742187 79.72382813-79.70800781v-217.3491211c0-43.95146484-35.76445313-79.71152344-79.72382813-79.71152343zM189.50908203 743.25644531c-14.73574219 0-26.72314453-11.99882812-26.72314453-26.74951172v-217.34912109c0-14.74980469 11.98652344-26.75302734 26.72314453-26.75302734h217.36318359c14.75859375 0 26.76533203 12.00058594 26.76533204 26.75302734v217.34912109c0 14.74980469-12.009375 26.74951172-26.76533204 26.74951172h-217.36318359zM847.18408203 419.44541016h-217.35878906c-43.94267578 0-79.6921875 35.75917969-79.6921875 79.71152343v217.3491211c0 43.95146484 35.74951172 79.70800781 79.6921875 79.70800781h217.35878906c43.96201172 0 79.72822266-35.75742187 79.72822266-79.70800781v-217.3491211c0-43.95146484-35.76533203-79.71152344-79.72910157-79.71152343zM629.82529297 743.25644531c-14.74189453 0-26.7328125-11.99882812-26.7328125-26.74951172v-217.34912109c0-14.74980469 11.99355469-26.75302734 26.7328125-26.75302734h217.35878906c14.76123047 0 26.76884766 12.00058594 26.76884766 26.75302734v217.34912109c0 14.74980469-12.009375 26.74951172-26.76884766 26.74951172h-217.35878906zM406.87050781-4.676074220000032h-217.36318359c-45.55810547 0-82.62333984 37.07490234-82.62333984 82.64970703v217.32451172c0 45.58271484 37.06611328 82.66728516 82.62333984 82.66728516h217.36318359c45.58271484 0 82.66728516-37.08369141 82.66728516-82.66728516v-217.32451172c0-45.57304687-37.08369141-82.64970703-82.66728516-82.64970703zM189.50908203 319.12177734c-13.11240234 0-23.7796875-10.68662109-23.7796875-23.82363281v-217.32451172c0-13.12558594 10.66816406-23.80605469 23.7796875-23.80605468h217.36318359c13.13701172 0 23.82363281 10.68134766 23.82363282 23.80605468v217.32451172c0 13.13789063-10.68662109 23.82363281-23.82363282 23.82363281h-217.36318359zM738.48623047-1.734375c-103.85771484 0-188.35224609 84.5015625-188.3522461 188.37070313 0 103.87705078 84.49541016 188.38564453 188.3522461 188.38564453 103.89902344 0 188.42695313-84.50947266 188.42695312-188.38564454 0-103.86914063-84.52792969-188.37070313-188.42695312-188.37070312zM738.48623047 322.06435547c-74.65605469 0-135.39375-60.75175781-135.39375-135.42626953 0-74.66748047 60.73681641-135.41132813 135.39375-135.41132813 74.69736328 0 135.46757812 60.74648438 135.46757812 135.41132813 0 74.67626953-60.77021484 135.42626953-135.46757812 135.42626953zM902.07880859-4.362304689999974c-0.01142578 0-0.02197266 0-0.03515625 0-7.12441406 0-13.57294922 2.89160156-18.2399414 7.56386719l-50.75595703 50.6953125c-10.10654297 10.09072266-10.11533203 26.46474609-0.02373047 36.57041016 10.09072266 10.10654297 26.465625 10.11972656 36.57128906 0.02373046l50.75595703-50.6953125c10.10654297-10.09072266 10.11533203-26.46474609 0.02373047-36.57041015-4.66875-4.68808594-11.12607422-7.58847656-18.26367187-7.58847656-0.01230469 0-0.02197266 0-0.03339844 0z"  horiz-adv-x="1024" />

    
    <glyph glyph-name="daijiedan" unicode="&#58925;" d="M751.6672 333.1072H484.7104V605.0304c0 14.848 9.728 24.7296 24.2688 24.7296s24.2688-9.8816 24.2688-24.7296v-222.5152h218.4192c14.592 0 24.32-9.8816 24.32-24.6784 0-14.848-9.728-24.7296-24.32-24.7296zM921.6 412.16v4.9152c0 12.3904-12.1344 22.272-26.6752 19.8144-14.592 0-24.32-14.848-21.8624-27.1872v-44.544c0-14.848 9.728-24.6784 21.8624-27.136h2.4064c12.1344 0 24.2688 9.8304 24.2688 22.2208V412.16z m-50.9952-168.1408c-12.1344 4.9664-26.6752 0-31.5392-12.288-7.2704-14.848-14.5408-27.2384-21.8624-39.6288-7.2704-12.288-4.8128-27.136 7.3216-34.56 4.864-2.5088 9.728-4.9664 12.1344-4.9664 7.2704 0 14.5408 4.9664 19.4048 9.8816 9.728 14.848 16.9984 29.696 24.2688 44.544 9.728 14.7968 2.4064 29.6448-9.728 37.0176z m-111.616-153.2416c-7.3216 12.3392-21.8624 14.848-33.9968 7.424a552.96 552.96 0 0 0-38.8608-22.272c-12.1344-4.9152-16.9472-19.7632-9.728-32.1536 4.9152-9.8816 12.1856-14.848 21.9136-14.848 4.8128 0 7.2704 0 12.1344 2.5088a420.864 420.864 0 0 1 43.6736 27.1872c9.728 4.9664 12.1344 19.7632 4.864 32.1536zM866.9696 545.28L811.52 563.2l-146.3296 48.64 60.5184 53.76c-63.0784 51.2-138.752 76.8-219.4944 76.8-194.304 0-353.28-161.28-353.28-358.4s158.976-358.4 353.28-358.4c15.104 0 25.1904-10.24 25.1904-25.6s-10.0864-25.6-25.1904-25.6C284.1088-25.6 102.4 158.72 102.4 384s181.7088 409.6 403.7632 409.6c93.3376 0 184.1664-33.28 257.3824-94.72l58.0096 53.76 35.328-168.96 10.0864-38.4z"  horiz-adv-x="1024" />

    
    <glyph glyph-name="dayin" unicode="&#58968;" d="M314.842663 142.581738l393.972886 0 0-78.794577-393.972886 0 0 78.794577ZM314.842663 24.901525l276.292674 0 0-78.794577-276.292674 0 0 78.794577ZM932.904257 499.715601l-65.476247 0L867.42801 720.925748c0 50.29857-40.775682 91.074252-91.074252 91.074252l-528.025998 0c-50.29857 0-91.074252-40.775682-91.074252-91.074252l0-221.210148-66.157769 0c-50.29857 0-91.074252-40.775682-91.074252-91.074252l0-292.665573c0-50.29857 40.775682-91.074252 91.074252-91.074252l66.157769 0 0-145.827273c0-50.29857 40.775682-91.074252 91.074252-91.074252l528.025998 0c50.29857 0 91.074252 40.775682 91.074252 91.074252L867.42801 24.901525l65.476247 0c50.29857 0 91.074252 40.775682 91.074252 91.074252l0 292.665573C1023.978509 458.939919 983.202826 499.715601 932.904257 499.715601zM235.914032 695.937634c0 21.476127 17.409508 38.885636 38.885636 38.885636l472.441029 0c21.476127 0 38.885636-17.409508 38.885636-38.885636l0-196.223057L235.914032 499.714578 235.914032 695.937634zM787.71348-93.876696c0-21.476127-17.409508-38.885636-38.885636-38.885636l-473.9238 0c-21.476127 0-38.885636 17.409508-38.885636 38.885636L236.01841 220.774611l551.695071 0L787.71348-93.876696zM847.673084 300.289596c-32.352849 0-58.580187 26.227338-58.580187 58.580187 0 32.352849 26.227338 58.580187 58.580187 58.580187 32.352849 0 58.580187-26.227338 58.580187-58.580187C906.254294 326.516934 880.026956 300.289596 847.673084 300.289596z"  horiz-adv-x="1024" />

    
    <glyph glyph-name="chakan" unicode="&#58920;" d="M117.868838 888.954405C52.8825 888.954405 0 839.621012 0 778.996107L0 45.952461C0-14.666605 52.8825-64 117.868838-64L603.910902-64C625.635997-64 643.203014-47.57927 643.203014-27.350739 643.203014-7.11753 625.635997 9.3032 603.910902 9.3032L117.868838 9.303194C96.220072 9.303194 78.576723 25.756608 78.576723 45.952461L78.576723 778.996106C78.576723 799.230478 96.220072 815.650039 117.868838 815.650039L825.071853 815.650039C846.754406 815.650039 864.356461 799.230478 864.356461 778.996106L864.356461 512.564691C864.356461 492.330319 881.923482 475.910758 903.648576 475.910758 925.37367 475.910758 942.933184 492.329152 942.933184 512.564691L942.933184 778.996107C942.931936 839.621012 890.050688 888.954405 825.071853 888.954405L117.868838 888.954405ZM432.181985 522.432582 196.444308 522.432582C174.75425 522.432582 157.152193 538.853311 157.152193 559.087683 157.152193 579.320887 174.75425 595.741617 196.444308 595.741617L432.180734 595.741617C453.863284 595.741617 471.465341 579.320888 471.465341 559.087683 471.466592 538.852143 453.864536 522.432582 432.181985 522.432582L432.181985 522.432582 432.181985 522.432582ZM605.508438 302.521823 191.643755 302.521823C172.6037 302.521823 157.152193 318.90403 157.152193 339.171087 157.152193 359.443981 172.6037 375.826188 191.643755 375.826188L605.508438 375.826188C624.579248 375.826188 640 359.443981 640 339.171087 640 318.90403 624.579248 302.521823 605.508438 302.521823L605.508438 302.521823 605.508438 302.521823ZM1131.628832-61.083904 1039.370477 31.174451C1070.123258 72.178163 1090.625114 123.432806 1090.625114 174.68745 1090.625114 302.824054 988.115834 405.333338 859.979226 405.333338 731.842624 405.333338 629.333338 302.824054 629.333338 174.68745 629.333338 46.550842 731.842624-55.958445 859.979226-55.958445 911.233869-55.958445 962.488512-35.456582 1003.492224-4.703802L1095.750579-96.962157C1106.00151-107.213082 1121.377901-112.338547 1131.628832-102.087622 1147.005222-91.836691 1141.879757-71.334835 1131.628832-61.083904L1131.628832-61.083904ZM680.587981 174.68745C680.587981 272.071268 762.595405 354.078695 859.979226 354.078695 957.363046 354.078695 1039.37047 272.071267 1039.37047 174.68745 1039.37047 77.303629 957.363046-4.703802 859.979226-4.703802 762.595405-4.703802 680.587981 77.303629 680.587981 174.68745L680.587981 174.68745ZM783.097261 215.691162C777.971802 215.691162 772.846336 215.691162 767.72087 220.816627 757.469946 231.067552 757.469946 246.443949 762.595405 256.694876 808.724582 307.949518 890.732013 313.074982 941.986656 272.071268 952.237581 261.82034 957.363046 251.569408 947.112115 236.193018 936.86119 225.942093 921.4848 225.942093 911.233869 231.067552 880.481082 256.694874 829.226445 251.569408 803.599117 220.816627 798.473658 215.691162 788.222726 215.691162 783.097261 215.691162L783.097261 215.691162ZM716.466227 169.561984C716.466227 155.408403 727.939974 143.934662 742.093549 143.934662 756.24713 143.934662 767.72087 155.408403 767.72087 169.561984 767.72087 183.715565 756.24713 195.189306 742.093549 195.189306 727.939974 195.189306 716.466227 183.715565 716.466227 169.561984L716.466227 169.561984Z"  horiz-adv-x="1152" />

    
    <glyph glyph-name="shengji" unicode="&#59142;" d="M924.989 346.999c24.506 28.443 45.213 52.543 61.009 71.051 27.989 33.983 35.963 97.641-0.428 141.795-4.775 5.488-15.835 18.513-30.412 35.657-43.881 51.608-117.302 137.982-151.104 174.643-13.967 15.168-31.34 34.028-64.99 35.366-2.45 0.083-9.91 0.363-104.261 0.363-107.265 0-258.771-0.349-258.702-0.349-16.042 0-40.502-3.663-67.454-35.408-19.767-23.317-50.47-58.988-81.547-95.093-39.589-45.992-79.759-92.683-98.641-115.305-32.821-38.248-33.637-91.596-2.145-139.263l2.09-2.787c37.18-43.583 118.048-137.144 213.561-247.643l148.462-171.828c27.422-31.786 49.072-36.077 66.637-36.077 18.453 0 39.299 4.373 66.637 36.063l153.555 177.748c14.978 17.329 29.576 34.217 43.698 50.558l104.037 120.505zM613.946 494.486s4.237-154.895 0-154.895h-111.02c-4.237 0 0 154.895 0 154.895l-128.243 0.002-2.229 2.228a9.392 9.392 0 0 0 0 13.283l180.789 180.788a9.393 9.393 0 0 0 13.282 0l180.788-180.789a9.392 9.392 0 0 0 0-13.283l-2.229-2.229H613.946zM525.13 206.369h66.611v-44.408H525.13v44.408z m-22.204 88.322h111.02v-43.914h-111.02v43.914z"  horiz-adv-x="1105" />

    
    <glyph glyph-name="zhuanjiao" unicode="&#59059;" d="M643.086405-127.945146C604.761601-127.945146 604.761601-127.945146 604.761601-108.709605v19.162402c0 19.30868 0 25.671768 38.324804 25.671768h185.553489a41.250362 41.250362 0 0 1 38.397943 38.397943V473.622627a41.250362 41.250362 0 0 1-38.397943 38.397943H636.723318A30.206382 30.206382 0 0 0 604.761601 543.982287v255.986286a41.469778 41.469778 0 0 1-38.397942 31.961716H195.256682a41.250362 41.250362 0 0 1-38.397943-38.324804v-179.117261a36.569469 36.569469 0 0 0-28.816742-38.251665 41.689195 41.689195 0 0 0-35.179829 38.251665V825.71348a71.091049 71.091049 0 0 0 70.432798 70.359659h428.667321a33.131939 33.131939 0 0 0 25.671768-12.872453l300.747317-300.674178a48.417978 48.417978 0 0 0 12.799314-25.671768v-652.765031a30.206382 30.206382 0 0 0-31.961716-32.034855zM111.951431 89.716337a30.791493 30.791493 0 0 0 0 44.76103l153.591771 153.591772v-89.668339a30.206382 30.206382 0 0 1 32.034856-31.961716h172.754174a30.279521 30.279521 0 0 0 32.034855-32.034856v-57.633484c0-6.436227-12.872453-19.235541-32.034855-19.235541H297.578058a30.206382 30.206382 0 0 1-31.961717-32.034855v-89.5952zM387.100119 332.83017a27.500241 27.500241 0 0 1-25.598629 25.598628H175.948002a27.646519 27.646519 0 0 0-25.671767 25.671768v70.432798a27.646519 27.646519 0 0 0 25.671767 25.598629h185.553488a27.500241 27.500241 0 0 1 25.598629 25.598629V595.325822l160.027999-159.95486a28.451047 28.451047 0 0 0 0-32.034855L387.173258 236.945021z m-255.986286 243.186972z m-6.436227 0h6.436227z"  horiz-adv-x="1024" />

    
    <glyph glyph-name="bianji" unicode="&#58921;" d="M348.312 228.972c18.082-18.081 46.632-18.081 63.762 0L909.8 726.697c18.082 18.082 18.082 46.632 0 64.714s-46.632 18.082-63.762 0L348.312 293.686c-18.082-18.082-18.082-46.632 0-64.714zM899.33 452.616c-24.743 0-45.68-19.986-45.68-45.68v-364.491h-683.3v683.3h364.49c24.744 0 44.729 19.986 45.68 45.681 0 24.744-19.985 45.68-44.728 45.68H124.669c-24.743 0-45.68-19.985-45.68-45.68v-774.662c0-12.371 4.758-23.792 13.323-32.357 8.565-8.565 19.985-13.323 32.357-13.323h774.662c12.372 0 23.792 4.758 32.357 13.323 8.565 8.565 13.323 19.986 13.323 32.357V406.935c0 25.695-20.937 45.68-45.68 45.68z"  horiz-adv-x="1024" />

    
    <glyph glyph-name="huazhuan-0111111" unicode="&#59439;" d="M112.64 12.288000000000011h571.392c113.664 0 216.064 92.16 227.84 205.312l42.496 402.432c3.072 26.112-5.12 52.224-22.016 71.168-16.896 19.456-41.984 30.72-68.608 30.72h-230.912c-23.04 0-41.984-18.944-41.984-41.984s18.944-41.984 41.984-41.984h230.912c1.536 0 3.072 0 4.096-1.024 2.56-1.024 2.56-4.608 2.56-6.144l-42.496-402.944c-7.168-70.656-73.216-130.56-143.36-130.56H112.64c-23.04 0-41.984-18.944-41.984-41.984s18.944-43.008 41.984-43.008zM512 459.776h228.864c19.968 0 35.84 15.872 35.84 35.84s-15.872 35.84-35.84 35.84H512c-19.968 0-35.84-15.872-35.84-35.84s15.872-35.84 35.84-35.84zM451.072 212.99199999999996c-7.168-23.552-29.184-39.424-54.272-39.424H200.704c-19.968 0-35.84 15.872-35.84 35.84s15.872 35.84 35.84 35.84H354.816l-19.456 17.92c-87.552 79.872-142.336 174.08-162.304 280.576-14.848 79.36-4.096 136.704-3.072 143.36 3.584 16.896 17.92 28.672 34.816 28.672 2.048 0 4.608-0.512 7.168-1.024 9.216-2.048 17.408-7.168 22.528-15.36 5.12-7.68 7.168-17.408 5.12-27.136-0.512-2.048-45.568-220.16 190.976-395.264 19.968-14.848 28.16-40.448 20.48-64z"  horiz-adv-x="1024" />

    
    <glyph glyph-name="yiwancheng" unicode="&#59046;" d="M384 0 160 0c-52.9 0-96 43.1-96 96L64 736c0 52.9 43.1 96 96 96l512 0c52.9 0 96-43.1 96-96l0-192c0-17.7-14.3-32-32-32s-32 14.3-32 32L704 736c0 17.6-14.4 32-32 32L160 768c-17.6 0-32-14.4-32-32l0-640c0-17.6 14.4-32 32-32l224 0c17.7 0 32-14.3 32-32S401.7 0 384 0zM688-64c-72.7 0-141 28.3-192.3 79.7C444.3 67 416 135.3 416 208c0 72.7 28.3 141 79.7 192.3C547 451.7 615.3 480 688 480c72.7 0 141-28.3 192.3-79.7S960 280.6 960 208c0-72.7-28.3-141-79.7-192.3S760.7-64 688-64zM688 416c-114.7 0-208-93.3-208-208s93.3-208 208-208 208 93.3 208 208S802.7 416 688 416zM608 576 224 576c-17.7 0-32 14.3-32 32s14.3 32 32 32l384 0c17.7 0 32-14.3 32-32S625.7 576 608 576zM384 384 224 384c-17.7 0-32 14.3-32 32s14.3 32 32 32l160 0c17.7 0 32-14.3 32-32S401.7 384 384 384zM320 192l-96 0c-17.7 0-32 14.3-32 32s14.3 32 32 32l96 0c17.7 0 32-14.3 32-32S337.7 192 320 192zM704 96c-6.3 0-12.5 1.8-17.8 5.4l-96 64c-14.7 9.8-18.7 29.7-8.9 44.4 9.8 14.7 29.7 18.7 44.4 8.9l68.1-45.4 78.7 131.2c9.1 15.2 28.8 20.1 43.9 11 15.2-9.1 20.1-28.7 11-43.9l-96-160c-4.5-7.5-11.9-12.8-20.4-14.8C708.7 96.2 706.3 96 704 96z"  horiz-adv-x="1024" />

    
    <glyph glyph-name="zhongdianguanzhu" unicode="&#58930;" d="M782.386619 476.545788L703.567372 687.284323l-78.747001-210.66629H412.131222l171.292789-133.869903L504.749255 104.412022 703.567372 250.130097l198.890363-145.718075-78.747002 238.263863 171.29279 133.869903H782.386619zM778.413146 328.877099l33.449415-98.469875-80.769861 59.096374-27.597573 19.722873-27.597573-19.722873-80.76986-59.096374L628.793843 328.877099l9.825314 31.498801-25.574714 19.722872-64.948215 51.221674H656.319171l11.848173 29.548187 35.472273 94.496402 35.472273-94.496402 11.848173-29.548187h108.295189L794.307036 380.098772l-25.574714-19.722872L778.413146 328.877099z m-62.997601 567.122901c-283.561451 0-512-228.438549-512-512s228.438549-512 512-512 512 228.438549 512 512S998.976996 896 715.415545 896z m0-978.702413c-257.986736 0-464.679554 208.715677-464.679554 464.679554s206.765063 466.702413 464.679554 466.702413S1180.095099 639.963878 1180.095099 384s-206.692818-466.702413-464.679554-466.702413zM780.36376 473.80048l-76.579653 204.814449-76.579653-204.814449h-206.765063L586.964014 343.61507 510.384361 111.997742l193.327501 141.672358 193.327501-141.672358-76.579653 231.617328 166.524623 130.18541h-206.620573z m15.89389-135.676027l65.02046-180.106674-132.497248 104.466206-34.171864 7.224495 12.281642 1.444899L552.575415 185.398617l60.613518 144.489911-2.889798 20.228588-9.608579 19.289403-110.318048 74.629039 136.759701 5.779597 28.392268 9.608579 48.187385 182.057288 50.499224-172.882179 13.509807-17.844504 159.878086-1.950614L807.311128 372.296317l-15.388175-17.338789-1.444899-14.448991 5.779596-2.384084zM715.271055 881.551009c-275.614505 0-497.695499-222.080993-497.695499-497.767744s222.080993-497.695499 497.695499-497.695499 497.767744 222.080993 497.767744 497.695499-222.080993 497.767744-497.767744 497.767744z m0-951.39382c-250.762241 0-451.747707 202.93608-451.747707 451.747707s200.985466 453.698321 451.747707 453.698321S1167.091007 632.667137 1167.091007 383.783265s-200.985466-453.626076-451.819952-453.626076z"  horiz-adv-x="1723" />

    
    <glyph glyph-name="chulizhong" unicode="&#58948;" d="M442.77523717 416.16712755V722.40920991c0 13.91383213 11.29637841 25.34797308 25.34797307 25.21021246h15.56696147c13.91383213 0 25.21021245-11.29637841 25.21021244-25.21021246l1.10208495-239.01485042c0-13.91383213 11.29637841-25.21021245 25.21021247-25.21021244h149.88366281c14.05159273 0 25.48573367-11.57189968 25.21021244-25.62349239l-0.27552124-16.66904835c-0.27552124-13.7760715-11.43413907-24.79693058-25.21021243-24.79692867H468.12321024c-14.05159273-0.27552124-25.34797308 11.15861779-25.34797307 25.07244991z m0-25.34797117M512.06888031 15.69671464999999c-118.47422055 0-229.7848813 46.14984188-313.4056384 129.90835771-83.75851774 83.75851774-129.90835962 195.06918035-129.90835962 313.40564028 0 118.47422055 46.14984188 229.7848813 129.90835962 313.40563843 83.75851774 83.75851774 195.06918035 129.90835962 313.4056384 129.90835962 19.01097885 0 34.44017969-15.42920085 34.44017969-34.44017968s-15.42920085-34.44017969-34.44017969-34.4401797c-206.50331942 0-374.43363867-167.93031924-374.43363866-374.43363867S305.5655609 84.57707402999995 512.06888031 84.57707402999995c102.63173599 0 198.37543713 40.77717391 269.59773087 114.61691939 13.225029 13.63831088 34.99122218 14.05159273 48.62953304 0.96432435 13.63831088-13.225029 14.05159273-34.99122218 0.96432625-48.62953303-40.91493454-42.43030133-88.9934251-75.9061567-142.8578674-99.1877186-55.79309098-24.38364685-115.16796189-36.64435151-176.33372276-36.64435149zM899.58978735 293.83560774c-3.58177799 0-7.30131855 0.5510425-11.0208572 1.79088997-18.04665453 6.06147106-27.68990553 25.6234943-21.62843444 43.67014881 12.94950779 38.43524146 19.56202323 78.66137099 19.56202323 119.71406612 0 144.09771298-84.3095602 277.17456876-214.63120359 338.7536115-17.22009081 8.12788227-24.52140745 28.65422983-16.39352516 45.87432065 8.12788227 17.22009081 28.65422983 24.52140745 45.87432065 16.39352518 74.94183234-35.40450593 138.31176314-90.92207567 183.35951816-160.62900067 46.2876025-71.63557557 70.80900997-154.70528831 70.80900995-240.39245666 0-48.49177434-7.71460042-96.15698301-23.14380122-141.61802179-4.95938611-14.46487651-18.45993637-23.5570831-32.78705038-23.55708311z"  horiz-adv-x="1024" />

    
    <glyph glyph-name="icon-" unicode="&#58909;" d="M480 222.08000000000004L303.04 399.04l33.92 33.92L480 289.91999999999996l367.04 367.04 33.92-33.92L480 222.08000000000004zM848 384a336 336 0 1 0-101.6 240l34.08 34.08A384 384 0 1 1 864 537.9200000000001l-37.44-37.12A333.6 333.6 0 0 0 848 384z"  horiz-adv-x="1024" />

    
    <glyph glyph-name="xunjian1" unicode="&#58918;" d="M191.47264 695.168c84.1216 86.98368 195.6096 134.61504 316.22144 134.61504 89.1904 0 174.32576-26.92096 247.30624-76.62592l-75.00288-1.03936c-16.21504 0-30.40768-14.49472-29.39392-31.06304 0-16.5632 14.18752-30.0288 30.40768-30.0288l158.1056 2.06848c12.16512 0 23.31648 7.24992 27.3664 19.67616 4.06016 11.38688 2.02752 24.85248-7.0912 33.13664C764.11392 839.10656 639.45216 890.88 507.69408 890.88c-136.82688 0-264.52992-54.87616-358.78912-153.25184-143.9232-149.11488-183.4496-368.64-103.37792-560.2048 5.0688-11.39712 15.20128-18.64704 27.3664-18.64704 4.05504 0 8.10496 1.03936 12.16 2.06848 15.20128 6.21568 22.2976 24.85248 16.21504 40.38656-70.94272 168.79104-35.47136 362.42944 90.20416 493.93664z m779.39712-88.0128c-5.05856 10.35264-15.19616 17.60256-27.36128 17.60256-4.05504 0-9.11872-1.03936-13.17376-3.10784-7.10144-3.10784-13.17376-9.3184-15.2064-17.60256-3.04128-7.24992-2.02752-15.53408 1.01376-23.81824 78.03904-168.78592 44.59008-372.78208-84.1216-506.36288-82.0992-85.94944-193.59232-133.5808-311.14752-134.61504h-3.0464c-90.20416 0-175.33952 26.92608-248.31488 76.62592l75.00288 1.03424c8.10496 0 15.20128 3.10784 21.28384 9.3184 6.08256 6.21568 9.12384 13.4656 8.10496 21.74976 0 16.56832-13.17376 30.02368-30.40256 30.02368l-158.11072-2.06848c-12.16 0-23.31136-7.2448-27.36128-19.67104-5.0688-11.39712-2.02752-24.85248 7.0912-33.13664 94.2592-94.2336 218.92096-146.01216 351.6928-146.01216h5.0688c133.7856 1.03424 259.46112 55.92064 353.7152 153.25696 145.95072 153.25696 184.46848 384.1792 95.27296 576.78336z m-459.12064 7.2448c-203.71968 0-312.1664-230.91712-312.1664-230.91712s106.4192-230.92736 312.1664-230.92736c192.56832 0 312.1664 230.92736 312.1664 230.92736s-117.57568 230.91712-312.1664 230.91712z m134.79936-230.91712c0-36.24448-14.18752-71.45472-39.53152-97.34656-25.33888-25.88672-59.79648-40.38144-95.26784-40.38144-73.98912 0-134.79936 63.17056-134.79936 137.72288 0 36.24448 14.18752 71.4496 39.5264 97.33632s59.79648 40.38144 95.27296 40.38144c73.98912 1.04448 134.79936-62.12096 134.79936-137.71264zM485.39648 470.46656l24.32512-86.97856-80.07168 33.13664c-4.05504-10.35264-6.08256-21.74976-6.08256-33.13664 0-48.67072 39.5264-89.0624 87.16288-89.0624a86.4768 86.4768 0 0 1 61.824 25.89184c16.22016 16.56832 25.33888 39.35232 25.33888 63.17056 0 48.6656-39.5264 89.05216-87.16288 89.05216-8.10496-0.00512-17.22368-0.00512-25.33376-2.0736z"  horiz-adv-x="1024" />

    
    <glyph glyph-name="haocai" unicode="&#58919;" d="M851.68684247 44.31315753000001l-111.84810666 8.28504494v103.56306172h57.99531456v169.84342124H230.3084721v-169.84342124h57.99531457v-111.84810666H172.31315753c-74.56540445 0-115.99062914 66.2803595-111.84810667 144.98828642v294.1190953c0 74.56540445 37.28270222 124.27567408 111.84810667 124.27567408h679.37368494c74.56540445 0 111.84810667-49.71026963 111.84810667-124.27567408v-294.1190953c0-70.42288197-37.28270222-144.98828642-111.84810667-144.98828642z m-567.52557828 621.37837037V744.39945482c0 49.71026963 41.42522469 91.13549431 91.13549433 91.13549432h269.2639605c49.71026963 0 91.13549431-41.42522469 91.13549431-91.13549432v-78.70792692H284.16126419z m397.68215705-733.22647704h-339.68684248v339.68684247h339.68684248v-339.68684247z m-111.84810667 223.69621333h-111.84810667v-57.99531456h111.84810667v57.99531456z m0-111.84810666h-111.84810667v-57.99531456h111.84810667v57.99531456z"  horiz-adv-x="1024" />

    
    <glyph glyph-name="shougongjiandan" unicode="&#58927;" d="M1450.4 359.733333c-1.2 7.2-3.333333 14.133333-6.266667 20.8-7.066667 15.466667-16.4 29.733333-27.866666 42.266667-10.266667 12-22.4 22.266667-36 30.266667-6.4 3.2-13.066667 5.866667-20 8-9.6 2.933333-19.466667 4.4-29.333334 4.533333-20.933333 0-41.2-7.333333-57.466666-20.666667-5.466667-4.666667-10.8-9.733333-16-15.2-5.333333-5.466667-9.866667-9.6-13.6-13.2l-4-3.733333-2.933334-3.066667-30.266666-28.666666 1.2-1.2-2.4-2.533334-106-109.466666-42-41.2-36.133334-37.2c-11.066667-11.333333-20.266667-21.066667-27.733333-28.933334l-11.866667-12.4-1.6-1.866666c-11.466667-11.333333-20.666667-24.666667-27.066666-39.333334-3.466667-7.333333-6.4-14.933333-8.8-22.666666-2.666667-8.666667-5.6-18-8.666667-28.533334-3.066667-10.4-5.466667-19.066667-8-28.266666-2.666667-9.066667-4.666667-18.266667-6-27.6-4.133333-20 0.533333-40.8 12.666667-57.2 12.133333-15.2 30.8-23.733333 50.266666-23.2 3.6 0 7.2 0.266667 10.8 0.8h2.133334c5.733333 0.933333 13.333333 2.533333 24.266666 5.466666 10.933333 2.933333 19.2 5.6 30.266667 9.2 11.066667 3.6 20.266667 6.933333 30.266667 10.666667 10 3.6 18 7.333333 24.133333 10.266667 8.133333 3.733333 15.6 8.533333 22.533333 14.133333 10 7.866667 19.466667 16.533333 28.133334 25.866667l26.533333 27.6c9.6 10.133333 20.8 21.466667 34.933333 35.866666l39.6 41.2 106 109.466667 34.266667 35.466667c3.066667 2.666667 6.266667 5.733333 9.733333 9.333333l7.6 7.466667 11.333334 11.466666h0.8v0.8c14.933333 16.666667 23.2 38.266667 23.2 60.533334 0 7.733333-0.8 15.6-2.4 23.2l1.733333 1.466666zM1224.266667 136.533333l-39.6-41.2c-13.2-13.2-24.933333-25.466667-35.6-36.533333l-26.266667-27.333333c-7.333333-8-15.333333-15.333333-23.733333-22-4.133333-3.333333-8.533333-6-13.333334-8.133334-6.533333-3.2-13.333333-6-20.133333-8.666666l-28-9.866667c-9.066667-3.066667-18.266667-5.733333-27.733333-8.266667-6.4-1.866667-12.933333-3.466667-19.6-4.533333-1.733333-0.133333-3.6-0.133333-5.333334 0-4.533333-0.533333-9.2 1.066667-12.4 4.4-3.2 5.733333-4.133333 12.533333-2.4 18.933333 1.066667 6.933333 2.666667 13.866667 4.533334 20.533334l8.533333 27.6c2.666667 9.733333 5.466667 18.533333 8.133333 26.666666 1.6 5.733333 3.733333 11.466667 6.4 16.8 1.733333 4.533333 4 8.933333 6.666667 13.066667 3.066667 4.666667 6.666667 9.066667 10.666667 13.066667l14 15.2c7.333333 7.733333 16.266667 17.066667 27.066666 28.266666l36 37.066667 40.133334 41.333333 106 109.733334 92.533333-95.866667-106.533333-110.266667z m177.466666 186.8c-1.733333-4.8-4.4-9.066667-7.866666-12.933333-3.733333-4-7.466667-7.6-10.666667-10.666667l-8-8.133333c-2.4-2.533333-5.066667-4.8-7.466667-7.066667L1275.2 380c4 3.6 8.8 8.133333 14.133333 13.466667s8.933333 8.533333 13.6 12.4c8.133333 6.666667 18.266667 10.266667 28.8 10 4.666667-0.133333 9.333333-0.933333 13.733334-2.266667 4-1.2 7.866667-2.8 11.6-4.666667 8.666667-5.2 16.4-11.866667 23.066666-19.6 7.866667-8.8 14.533333-18.666667 19.6-29.333333 2.933333-7.466667 4.4-15.466667 4.4-23.466667 0-4.533333-0.8-8.933333-2.4-13.2z m0 0M817.6-26H612.133333c-35.866667 0.666667-64.4 30.133333-63.866666 66V744c-0.266667 17.2 6.4 33.866667 18.4 46.266667 12 12.4 28.4 19.466667 45.733333 19.733333h597.733333c35.866667-0.533333 64.4-30 63.866667-65.866667v-179.2c0-17.866667 14.533333-32.4 32.4-32.4s32.4 14.533333 32.4 32.4V743.866667c1.066667 72-56.266667 131.333333-128.133333 132.8H612.933333c-34.8-0.4-68-14.666667-92.266666-39.6-24.266667-24.933333-37.733333-58.4-37.2-93.2V40c-0.933333-72.266667 56.666667-131.6 128.933333-132.8h205.2c18.533333 0 33.466667 14.933333 33.466667 33.466667 0 18.533333-14.933333 33.466667-33.466667 33.466666v-0.133333z m0 0M1210.533333 658.533333c0.133333 8.666667-3.2 17.2-9.2 23.466667-6 6.266667-14.4 9.866667-23.066666 10H716.4c-17.6-1.2-31.2-15.733333-31.2-33.466667 0-17.6 13.6-32.266667 31.2-33.466666h461.866667c18.133333 0.533333 32.533333 15.466667 32.266666 33.466666zM716.266667 515.6c-17.6-1.2-31.2-15.733333-31.2-33.466667 0-17.6 13.6-32.266667 31.2-33.466666h318.133333c17.6 1.2 31.2 15.733333 31.2 33.466666 0 17.6-13.6 32.266667-31.2 33.466667H716.266667z m181.733333-188.666667H716.266667c-17.6-1.2-31.2-15.733333-31.2-33.466666 0-17.6 13.6-32.266667 31.2-33.466667h181.733333c17.6 1.2 31.2 15.733333 31.2 33.466667s-13.6 32.266667-31.2 33.466666z m0 0M1450.4 359.733333s7.2-23.466667-4.133333-53.2c-11.333333-29.733333-8.933333 16.533333-8.933334 16.533334l-7.333333 51.733333 20.4-15.066667z"  horiz-adv-x="1821" />

    
    <glyph glyph-name="huchudianhua" unicode="&#58917;" d="M766.438946-47.5579c-4.429893 0-7.181563 0.145309-7.476275 0.160659l-0.290619 0.01842c-42.736337 3.02387-90.967828 17.787108-139.483798 42.693358l-0.587378 0.315178-54.078663 30.248931c-102.549607 56.177464-259.853259 218.356147-266.500657 225.233787l-11.432377 11.828396 0.092098 0.11461c-27.666106 29.688159-84.594677 94.66094-133.902686 175.60753-55.477522 91.075275-81.612763 169.619142-77.67815 233.44889 2.922563 47.425126 22.463618 85.97307 58.07979 114.573455 38.268582 30.728862 73.250304 43.540655 106.933451 39.162952 36.108383-4.690836 69.019956-28.681226 103.573937-75.497485 2.307555-3.127224 4.591575-6.207375 6.842849-9.244548 25.679869-34.643008 47.857984-64.562435 55.935963-95.558379 9.42772-36.173874-1.87572-69.727061-34.558074-102.576213l-1.133823-1.139963-0.239454-0.143263c-1.543146-1.576915-8.922207-10.053983-9.100262-28.119431-0.180102-18.291598 6.823406-40.11565 20.814048-64.866357 19.22076-34.000372 51.161217-72.403007 94.934163-114.14162 73.369008-69.476351 120.596635-88.594781 147.289578-92.391247 23.400966-3.329838 33.67803 4.653997 35.45756 6.243191l0.306992 0.428765-0.25071-0.378623c0.052189 0.048095 0.096191 0.088004 0.12996 0.12075 27.874861 32.115442 63.648622 42.73122 106.3297 31.54853 30.785144-8.064676 64.736397-26.939559 110.083188-61.199851 34.673707-26.194592 55.872518-52.227502 64.805982-79.588663 9.91379-30.357402 5.175883-61.742203-14.482853-95.946212-5.145184-8.953929-16.573467-12.040221-25.526373-6.892991-8.951883 5.145184-12.039197 16.573467-6.892991 25.526373 14.275121 24.837688 17.885346 45.717228 11.357675 65.705468-6.482645 19.854187-23.427572 39.926338-51.800783 61.36051-53.480029 40.404222-80.984453 50.661843-97.019661 54.862515-29.009707 7.600095-50.218752 1.410116-68.768223-20.064988-2.236947-2.578732-16.8559-18.027585-47.285956-19.762089-50.306756-2.858094-114.064872 31.898501-189.489702 103.322204C364.582509 390.261611 321.769424 460.825736 324.130192 517.230374c1.333368 31.846312 17.013489 48.312332 21.691021 52.538587 46.799886 47.340191 27.248597 78.138638-25.329898 149.069107-2.266623 3.057639-4.564969 6.15928-6.887874 9.30697-28.097942 38.068014-52.979632 57.33073-78.30646 60.621682-23.048949 2.994194-48.796356-7.223518-78.70248-31.237445-27.442002-22.037922-41.891086-50.730405-44.171012-87.718831-3.406586-55.261605 21.591761-128.46586 72.290443-211.69647 55.645344-91.351568 121.350812-161.615864 140.164297-180.974771l2.491751-2.564405c20.531616-20.967544 164.28874-166.17981 255.178797-215.937051l0.149403-0.082888 53.862745-30.126134c43.889603-22.49227 86.947258-35.799344 124.561947-38.494733 1.385557-0.062422 16.679891-0.665149 33.288151 2.122337 5.990434 1.004887 12.458753 2.228761 19.305695 3.52222 25.75764 4.867868 57.81373 10.927887 100.929714 12.644995 10.296507 0.403183 19.015076-7.619538 19.425422-17.936511 0.411369-10.316973-7.618515-19.015076-17.936511-19.425422-40.364313-1.608637-70.922283-7.385201-95.474468-12.025894-7.04137-1.330298-13.690814-2.586918-20.058848-3.656273C786.892791-47.120948 774.135232-47.5579 766.438946-47.5579zM717.01735 610.253 575.456241 610.253c-10.326183 0-18.696828-8.370645-18.696828-18.696828s8.370645-18.696828 18.696828-18.696828l96.939843 0L543.948643 445.527308c-7.333012-7.269567-7.384178-19.107173-0.11461-26.440186 3.65525-3.687996 8.465812-5.53404 13.278421-5.53404 4.757351 0 9.517771 1.804089 13.162788 5.418406l128.046305 126.936017 0-98.135064c0-10.326183 8.370645-18.696828 18.696828-18.696828s18.696828 8.370645 18.696828 18.696828l0 143.784754C735.714178 601.882356 727.343533 610.253 717.01735 610.253z"  horiz-adv-x="1024" />

    
    <glyph glyph-name="weijiedianhua" unicode="&#58892;" d="M351.232 584.704c-1.024 3.072-1.536 6.144-2.56 9.728-7.68 28.16-15.872 56.832-24.064 82.944-4.608 14.336-8.704 27.648-12.8 39.936-11.264 33.28-21.504 57.856-24.064 61.44-9.728 11.776-19.968 15.872-39.424 14.848-20.48-1.536-51.2-10.752-76.8-27.648-36.864-24.064-60.416-60.928-67.584-115.712-15.36-120.32 73.216-282.624 228.864-447.488 128-134.656 309.248-229.376 426.496-227.84 82.432 1.024 154.112 77.312 160.768 134.656 4.096 35.328-2.56 53.76-17.408 60.928-7.168 3.584-27.136 9.728-54.784 16.384-15.36 3.584-32.768 7.68-52.224 11.776-27.648 6.144-56.832 11.776-86.528 17.408-4.608 1.024-9.216 1.536-13.312 2.56l-88.064-88.064-30.208 10.24c-130.56 44.032-252.928 171.008-314.88 309.248L249.344 481.28l101.888 103.424z m56.832-14.848L310.272 470.016c51.2-113.152 159.232-239.104 284.672-281.6l84.48 84.48s200.704-35.328 245.76-56.832c39.424-18.944 52.224-60.928 46.08-112.64-6.656-55.808-79.36-178.688-211.456-179.712s-325.12 97.792-463.872 243.712C157.184 313.344 33.28 498.688 53.248 656.384 72.704 814.08 209.92 842.24 244.224 844.8c34.816 2.56 61.952-7.68 82.944-33.28 27.136-34.304 80.896-241.664 80.896-241.664zM711.68 629.76l122.368 122.368c10.24 10.24 25.6 10.24 35.84 0s10.24-25.6 0-35.84L747.52 593.92l122.88-122.88c10.24-10.24 10.24-25.6 0-35.84s-25.6-10.24-35.84 0l-122.88 122.88-122.88-122.88c-10.24-10.24-25.6-10.24-35.84 0s-10.24 25.6 0 35.84l122.88 122.88-120.832 120.832c-10.24 10.24-10.24 25.6 0 35.84s25.6 10.24 35.84 0L711.68 629.76z"  horiz-adv-x="1024" />

    
    <glyph glyph-name="yijiedianhua" unicode="&#58908;" d="M351.232 584.704c-1.024 3.072-1.536 6.144-2.56 9.728-7.68 28.16-15.872 56.832-24.064 82.944-4.608 14.336-8.704 27.648-12.8 39.936-11.264 33.28-21.504 57.856-24.064 61.44-9.728 11.776-19.968 15.872-39.424 14.848-20.48-1.536-51.2-10.752-76.8-27.648-36.864-24.064-60.416-60.928-67.584-115.712-15.36-120.32 73.216-282.624 228.864-447.488 128-134.656 309.248-229.376 426.496-227.84 82.432 1.024 154.112 77.312 160.768 134.656 4.096 35.328-2.56 53.76-17.408 60.928-7.168 3.584-27.136 9.728-54.784 16.384-15.36 3.584-32.768 7.68-52.224 11.776-27.648 6.144-56.832 11.776-86.528 17.408-4.608 1.024-9.216 1.536-13.312 2.56l-88.064-88.064-30.208 10.24c-130.56 44.032-252.928 171.008-314.88 309.248L249.344 481.28l101.888 103.424z m56.832-14.848L310.272 470.016c51.2-113.152 159.232-239.104 284.672-281.6l84.48 84.48s200.704-35.328 245.76-56.832c39.424-18.944 52.224-60.928 46.08-112.64-6.656-55.808-79.36-178.688-211.456-179.712s-325.12 97.792-463.872 243.712C157.184 313.344 33.28 498.688 53.248 656.384 72.704 814.08 209.92 842.24 244.224 844.8c34.816 2.56 61.952-7.68 82.944-33.28 27.136-34.304 80.896-241.664 80.896-241.664zM913.408 723.456l-199.168-199.168c-10.752-10.752-28.672-10.752-39.424 0L552.96 646.144c-10.24 10.24-26.112 10.24-36.352 0s-10.24-26.112 0-36.352l135.68-135.68c23.04-23.04 60.416-23.04 83.456 0l213.504 213.504c10.24 10.24 10.24 26.112 0 36.352-9.728 9.728-26.112 9.728-35.84-0.512z"  horiz-adv-x="1024" />

    
    <glyph glyph-name="ziyuan" unicode="&#59050;" d="M511.753728 896a511.753728 511.753728 0 1 1 512.246272-511.753728A512.738817 512.738817 0 0 1 511.753728 896z m0-959.969216a447.722944 447.722944 0 1 0 447.722943 447.722944 448.215488 448.215488 0 0 0-447.722943-447.722944zM244.794613 130.585859l266.959115 253.660413 267.451659-253.660413-267.451659 506.828282-266.959115-506.828282z"  horiz-adv-x="1024" />

    
    <glyph glyph-name="weixiu" unicode="&#58907;" d="M860 795.1 178.9 795.1c-43.4 0-78.6-35.2-78.6-78.6l0-681.1c0-43.4 35.2-78.6 78.6-78.6L860-43.2c43.4 0 78.6 35.2 78.6 78.6l0 681.1C938.6 759.9 903.4 795.1 860 795.1L860 795.1zM886.2 61.6c0-28.9-23.5-52.4-52.4-52.4L205.1 9.2c-28.9 0-52.4 23.5-52.4 52.4l0 628.7c0 28.9 23.5 52.4 52.4 52.4l628.7 0c28.9 0 52.4-23.5 52.4-52.4L886.2 61.6 886.2 61.6zM721.92 501.76l-64.512 17.408L640 583.68l66.048 66.048c-38.912 10.752-82.432 0.512-113.152-30.208-30.72-30.72-40.448-74.24-29.696-113.664l-178.176-178.176c-38.912 10.752-82.944 1.024-113.664-29.696-30.72-30.72-40.448-73.728-30.208-113.152L307.2 251.392l64.512-17.408 17.408-64.512-66.048-66.048c38.912-10.752 82.432-0.512 113.152 30.208 32.256 32.256 41.472 78.336 28.16 118.784l174.592 174.592c40.448-13.312 86.528-3.584 118.784 28.16 30.72 30.72 40.448 73.728 30.208 113.152L721.92 501.76z"  horiz-adv-x="1024" />

    
    <glyph glyph-name="dianhua" unicode="&#58906;" d="M731.396 444.237c0-21.915 14.61-36.526 36.526-36.526s36.526 14.61 36.526 36.526c0 119.317-97.402 216.72-216.72 216.72-21.915 0-36.526-14.61-36.526-36.527s14.61-36.526 36.526-36.526c80.357 0 143.668-65.746 143.668-143.667z m146.103 0c0-21.915 14.61-36.526 36.526-36.526s36.526 14.61 36.526 36.526c0 197.24-160.714 360.387-360.388 360.387-21.915 0-36.526-14.61-36.526-36.526s14.61-36.526 36.526-36.526c155.844 0 287.336-129.057 287.336-287.335zM390.49 570.859c38.96 38.96 43.83 99.837 7.305 143.668L285.782 855.76C249.256 902.026 181.074 909.331 134.81 872.805c-2.436-4.87-7.306-4.87-7.306-7.305l-97.402-97.4c-92.532-92.533 38.961-345.777 280.031-586.847S799.578-188.876 892.11-98.78l97.402 97.402c43.83 43.83 43.83 112.012 0 150.973l-7.305 7.305-141.233 112.012c-43.831 36.526-104.708 31.656-143.668-7.305l-60.877-60.876c-65.746 38.96-121.752 82.792-172.888 133.928-48.702 48.7-90.097 104.707-131.493 170.453l58.441 65.746z m-51.136 94.967c9.74-14.61 9.74-36.526-2.435-46.266l-80.357-82.792c-12.175-12.175-14.61-29.22-7.305-43.83 41.396-77.921 94.967-148.538 158.278-211.85 63.312-63.311 133.928-116.882 211.85-158.278 14.61-7.305 31.656-4.87 43.83 7.306l82.793 82.79c14.61 14.61 31.655 14.61 46.266 2.436l141.233-114.447s2.435 0 2.435-2.435c14.61-12.175 14.61-34.09 2.435-48.701l-2.435-2.435-97.402-97.402c-46.266-46.266-270.291 73.05-482.14 280.03C146.983 439.368 30.1 665.827 78.801 714.528l99.837 99.837c14.61 9.74 38.961 9.74 51.137-7.305l109.577-141.233z"  horiz-adv-x="1024" />

    
    <glyph glyph-name="tonghuajilu" unicode="&#59037;" d="M694.29 42.397c-2.654 4.923-64.807 121.229-105.498 169.997-18.077 21.615-37.923 42.692-64.384 42.692-22.615 0-42.461-15.384-65.307-33.153-23.73-18.461-37.461-20.384-42.538-23-1.192 1.308-115.056 134.921-145.036 194.824-18.904 37.846-5.308 51.615 54.98 82.999 55.057 28.653 54.288 69.076 44.365 89.499-4 6.019-98.71 148.786-145.325 195.401-13.154 13.096-29.98 20.115-48.769 20.115-52.961 0-107.537-55.653-113.229-61.614-37.769-37.749-91.806-178.382-45.499-332.091 46.384-153.902 143.671-295.823 297.438-433.744 53.153-47.692 110.768-71.922 171.305-71.922 95.652 0 168.767 61.384 188.92 80.076 35.077 32.845 26.731 67.921 18.577 79.921zM192.009 728.137c42.826-42.769 136.46-183.632 137.094-183.632 1-4-2.788-14.365-24.48-25.634-14.615-7.711-31.384-16.75-46.557-27.884l-145.748 209.766c19.096 16.307 45.345 33.576 64.461 33.576 6.25 0 10.942-1.884 15.23-6.192v0zM347.18-10.448c-147.075 131.998-239.862 266.919-283.707 412.244-37.384 124.037-0.25 236.766 26.634 275.419l144.363-207.689c-19.038-23-27.019-53.768-5.385-96.999 32.576-65.134 146.632-198.824 152.825-205.824 2.961-3.077 14.231-12.615 35.192-12.615 5.808 0 11.884 0.923 18.077 2.461l138.383-205.997c-24.692-11.692-54.076-20.692-86.768-20.692-48.538 0-95.461 20-139.614 59.692zM643.368-2.833c-6.961-6.538-21.73-19.077-41.73-31.538l-136.767 203.305c7.615 4.308 15.384 9.231 23.461 15.538 11.808 9.231 29.769 23.154 36.076 23.154 2 0 8.615-2.461 27.846-25.615 37.538-44.999 99.537-160.844 101.306-163.998 0.154 0 3.385-8.154-10.192-20.846zM852.429 209.014h-211.338l24.655-51.87h186.683zM395.528 367.774h456.901v-51.87h-456.901v51.87zM820.015 831.173v64.827h-395.343v-64.827h-204.17v-36.588l51.83-54.154v38.912h152.3v-84.244h395.382v84.244h152.3v-855.513h-279.237l-35.643-51.83h366.75v959.173h-204.17zM768.185 746.929h-291.682v97.241h291.682v-97.241zM395.528 526.572h456.901v-51.83h-456.901v51.83z"  horiz-adv-x="1025" />

    
    <glyph glyph-name="18002" unicode="&#59257;" d="M792.199005 890.905473H231.800995c-56.039801 0-101.890547-45.850746-101.890547-101.890548v-815.124378c0-56.039801 45.850746-101.890547 101.890547-101.890547h254.726368v0.509453c14.264677 2.547264 25.472637 14.774129 25.472637 30.057711s-11.20796 27.510448-25.472637 30.057712v0.509452H231.800995c-22.41592 0-40.756219 18.340299-40.756219 40.756219V789.014925c0 22.41592 18.340299 40.756219 40.756219 40.756219h560.39801c22.41592 0 40.756219-18.340299 40.756219-40.756219v-509.452736c1.528358-15.793035 14.264677-28.0199 30.567164-28.0199s29.038806 12.226866 30.567164 28.0199V789.014925c0 56.039801-45.850746 101.890547-101.890547 101.890548zM741.253731 651.462687H282.746269c-16.81194 0-30.567164 13.755224-30.567165 30.567164s13.755224 30.567164 30.567165 30.567164h458.507462c16.81194 0 30.567164-13.755224 30.567165-30.567164s-13.755224-30.567164-30.567165-30.567164zM435.58209 513.400995H282.746269c-16.81194 0-30.567164 13.755224-30.567165 30.567164s13.755224 30.567164 30.567165 30.567164h152.835821c16.81194 0 30.567164-13.755224 30.567164-30.567164 0-17.321393-13.755224-30.567164-30.567164-30.567164zM591.474627 317.26169200000004c78.455721 0 142.646766-64.191045 142.646766-142.646767s-64.191045-142.646766-142.646766-142.646766-142.646766 64.191045-142.646766 142.646766 64.191045 142.646766 142.646766 142.646767m0 61.134328c-112.589055 0-203.781095-91.19204-203.781095-203.781095s91.19204-203.781095 203.781095-203.781094 203.781095 91.19204 203.781094 203.781094-91.19204 203.781095-203.781094 203.781095zM884.919403-70.43184099999996l-155.892537 155.892538-43.303483-43.303483 155.892537-155.892537c5.60398-5.60398 13.245771-9.170149 21.906468-9.17015 16.81194 0 30.567164 13.755224 30.567164 30.567165 0 8.660697-3.566169 16.302488-9.170149 21.906467z"  horiz-adv-x="1024" />

    
    <glyph glyph-name="baozhang" unicode="&#58943;" d="M930.4 696.1c0 14.2-9.5 23.6-23.6 28.4l-373.5 104c-14.2 4.7-33.1 4.7-42.6 0l-373.5-104c-14.2-4.7-18.9-14.2-23.6-28.4 0-4.7-18.9-151.3 18.9-316.8C136.1 280 173.9 194.9 230.7 124c66.2-85.1 156-146.6 264.8-184.4 9.5-4.7 18.9-4.7 33.1 0 108.8 37.8 198.6 99.3 264.8 184.4 52 70.9 94.6 156 118.2 255.3 37.8 165.5 18.8 312 18.8 316.8z m-85.1-302.6c-47.3-198.6-160.8-331-335.7-387.7-174.9 61.5-288.4 189.1-335.7 387.7-28.4 122.9-23.6 231.7-18.9 279l354.6 99.3 354.6-99.3c4.8-47.4 9.5-160.8-18.9-279zM452.9 256.4L334.7 369.8c-14.2 14.2-14.2 33.1 0 47.3 14.2 14.2 33.1 14.2 47.3 0l94.6-89.8L670.5 507c14.2 14.2 33.1 14.2 47.3 0 14.2-14.2 14.2-33.1 0-47.3L500.2 256.4c-4.7-4.7-14.2-9.5-23.6-9.5-9.5 0-19 4.7-23.7 9.5z"  horiz-adv-x="1024" />

    
    <glyph glyph-name="gaojingshijian" unicode="&#58904;" d="M990.72 340.992H863.744v22.016c0 12.288-0.512 24.576-2.048 36.352h128.512c16.384 0 29.184-12.8 29.184-29.184 0.512-15.872-12.288-29.184-28.672-29.184zM781.312 585.728c-12.8 14.848-26.624 28.672-41.984 41.472l93.696 93.184a30.305 30.305 0 0 0 41.984 0c11.776-11.264 11.776-30.208 0-41.472l-93.696-93.184z m24.064-573.952h68.096c16.384 0 29.184-12.8 29.184-29.184 0-15.872-13.312-29.184-29.184-29.184h-721.92c-16.384 0-29.184 12.8-29.184 29.184 0 15.872 13.312 29.184 29.184 29.184h68.608V360.448c0 160.256 131.072 290.304 292.864 290.304s292.864-130.048 292.864-290.304l-0.512-348.672z m-58.368 329.216c0 128.512-104.96 232.448-233.984 232.448-129.536 0-233.984-103.936-233.984-232.448v-329.216h467.968V340.992zM518.144 464.896c11.264 11.264 30.208 11.264 41.472 0 11.264-11.264 11.264-29.696 0-40.96l-63.488-62.976h104.96c16.384 0 36.864-14.848 39.424-29.184 1.024-7.168 0.512-10.24 0-12.288-3.584-13.824-11.264-20.992-19.456-29.184L506.368 176.64c-11.776-11.776-31.232-11.776-43.008 0a29.975 29.975 0 0 0 0 42.496l89.6 83.968H445.44c-5.632 0-9.216 0.512-15.36 1.536-11.776 1.536-20.48 4.096-27.136 10.24-9.728 14.336-6.144 29.696 5.12 40.96l110.08 109.056zM483.84 707.584V844.8c0 15.872 13.312 29.184 29.184 29.184 16.384 0 29.184-12.8 29.184-29.184v-137.216c-9.728 1.024-19.456 1.536-29.696 1.536-9.728 0-18.944-0.512-28.672-1.536zM248.832 590.848l-94.72 94.208c-11.264 11.264-11.264 29.696 0 40.96s29.696 11.264 41.472 0l95.744-94.72c-15.36-12.288-29.184-25.6-42.496-40.448z m-87.04-227.84v-22.016H34.816c-16.384 0-29.184 12.8-29.184 29.184 0 15.872 13.312 29.184 29.184 29.184H163.84c-1.536-11.776-2.048-24.064-2.048-36.352z"  horiz-adv-x="1024" />

    
    <glyph glyph-name="gongdan" unicode="&#58905;" d="M940.298-128h-685.2a83.702 83.702 0 0 0-83.7 83.702V640.246a83.722 83.722 0 0 0 83.7 83.722H940.36a83.702 83.702 0 0 0 83.64-83.722v-684.544A83.702 83.702 0 0 0 940.298-128zM904.52 646.697H291a42.353 42.353 0 0 1-42.352-42.353v-612.802c0-23.388 18.964-42.353 42.352-42.353h619.766a36.045 36.045 0 0 1 36.045 36.045l0.061 619.11a42.353 42.353 0 0 1-42.352 42.353z m-104.55-576.43H380.005a44.134 44.134 0 0 0-44.011 44.011c0 24.208 19.804 44.012 44.011 44.012H799.97c24.208 0 44.032-19.804 44.032-44.012a44.155 44.155 0 0 0-44.032-44.011z m-93.43 183.521H380.006a44.134 44.134 0 0 0-44.011 44.012c0 24.207 19.804 44.032 44.011 44.032H706.54c24.207 0 44.011-19.825 44.011-44.032a44.134 44.134 0 0 0-44.011-44.012zM497.377 437.31h-121.2a44.134 44.134 0 0 0-44.012 44.012c0 24.207 19.804 44.032 44.012 44.032h121.2c24.208 0 44.012-19.825 44.012-44.032a44.134 44.134 0 0 0-44.012-44.012z m349.471 317.502h-74.199a5.816 5.816 0 0 0-5.837 5.837v17.817c0 17.408-14.11 31.519-31.519 31.519H130.171a44.155 44.155 0 0 1-44.155-44.155v-576c0-18.002 14.602-32.604 32.625-32.604h16.507a5.847 5.847 0 0 0 5.836-5.837v-74.28a5.857 5.857 0 0 0-5.836-5.838H76.186A76.186 76.186 0 0 0 0 147.456V819.814A76.186 76.186 0 0 0 76.186 896h692.858a83.702 83.702 0 0 0 83.64-83.702v-51.65a5.837 5.837 0 0 0-5.836-5.837z"  horiz-adv-x="1024" />

    
    <glyph glyph-name="fuwutai" unicode="&#58956;" d="M858.33-59.32H165.67c-51.68 0-93.67 41.99-93.67 93.67v699.3c0 51.68 41.99 93.67 93.67 93.67h692.66c51.68 0 93.67-41.99 93.67-93.67v-699.3c0-51.68-41.99-93.67-93.67-93.67zM165.67 768.66c-19.31 0-35.01-15.7-35.01-35.01v-699.3c0-19.31 15.7-35.01 35.01-35.01h692.66c19.31 0 35.01 15.7 35.01 35.01v699.3c0 19.31-15.7 35.01-35.01 35.01H165.67zM512 347.45c-100.6 0-182.42 81.81-182.42 182.42S411.4 712.28 512 712.28s182.42-81.81 182.42-182.42S612.6 347.45 512 347.45z m0 306.16c-68.23 0-123.75-55.52-123.75-123.75S443.77 406.11 512 406.11s123.75 55.52 123.75 123.75S580.23 653.61 512 653.61zM422.62 151.05c-16.21 0-29.33 13.12-29.33 29.33V257.1c-86.68 14.09-153.08 89.49-153.08 180.07 0 16.21 13.12 29.33 29.33 29.33s29.33-13.12 29.33-29.33c0-68.23 55.52-123.75 123.75-123.75 16.21 0 29.33-13.12 29.33-29.33v-103.7c0.01-16.22-13.11-29.34-29.33-29.34zM601.38 151.05c-16.21 0-29.33 13.12-29.33 29.33v103.7c0 16.21 13.12 29.33 29.33 29.33 68.23 0 123.75 55.52 123.75 123.75 0 16.21 13.12 29.33 29.33 29.33s29.33-13.12 29.33-29.33c0-90.58-66.4-165.97-153.08-180.07v-76.71c0-16.21-13.12-29.33-29.33-29.33zM754.23 55.72H269.77c-16.21 0-29.33 13.12-29.33 29.33s13.12 29.33 29.33 29.33h484.46c16.21 0 29.33-13.12 29.33-29.33s-13.12-29.33-29.33-29.33z"  horiz-adv-x="1024" />

    
    <glyph glyph-name="huiyi1" unicode="&#58893;" d="M770.6624 340.6336c1.8432-2.2016 3.8912-4.7104 6.0928-7.68l135.6288-240.64a13.7728 13.7728 0 0 0 0-4.352L204.8 88.62720000000002a15.36 15.36 0 0 0 0 3.9936l137.4208 241.0496a64.5632 64.5632 0 0 0 4.7104 7.0144h-30.72L161.536 81.91999999999996v-45.6192a11.3152 11.3152 0 0 1 2.2016 0l789.1456-0.6656h1.6896v47.8208l-151.9616 257.1776h-31.9488zM491.52 675.84c9.8816-36.7616 33.3312-70.0416 71.3216-70.0416s61.7472 33.6896 71.68 70.656a29.0304 29.0304 0 0 1 15.36 29.8496A17.92 17.92 0 0 1 640 721.92c-2.56 45.6192-32.256 81.92-76.8 81.92s-74.4448-35.84-76.8-81.1008c-6.912-1.6384-10.24-10.5984-10.9056-19.0976A24.4224 24.4224 0 0 1 491.52 675.84zM1065.472 425.5232c-7.68 47.3088-33.0752 71.68-50.688 79.8208a85.6576 85.6576 0 0 1-37.7856-11.776c-11.8784-6.656-65.792-49.9712-65.792-49.9712s8.8576 38.8096 5.376 34.9696a172.7488 172.7488 0 0 1-29.5936-52.3776c-11.1104-43.1616-16.5888-44.9536-31.4368-124.8256L969.8304 122.88H1070.08c0 152.7296-2.1504 227.6864-4.608 302.4896zM938.752 536.4736c30.1056-7.7312 85.6064 27.4432 96.256 102.4 1.8944 46.08-25.6 84.6336-70.4 86.6816-32.512 1.28-69.0176-28.4672-70.5024-74.752s3.3792-103.8848 44.6464-114.3296zM229.2224 426.24A175.2064 175.2064 0 0 1 199.68 478.5664c-3.4816 3.7376 7.1168-44.1856 7.1168-44.1856S150.8864 486.9632 139.0592 493.6192a84.224 84.224 0 0 1-37.6832 11.7248c-17.6128-8.2944-43.1104-32.1536-50.688-79.7696C48.2304 350.72 46.08 275.8144 46.08 122.88h100.2496L261.12 301.4144c-15.36 79.4624-20.48 81.92-31.6928 124.8256zM177.3568 536.4223999999999c40.96 10.24 46.4896 68.0448 44.6464 114.3296S183.6544 727.04 151.5008 725.5552c-44.5952-1.7408-72.2432-40.3456-70.4512-86.6816 11.0592-74.9568 66.2528-110.08 96.3584-102.4zM452.3008 351.0272c0 7.1168 0 14.336 0.6144 21.4016 2.4576 43.6224 14.6432 106.0352 20.48 108.4416v-129.8432h206.0288v118.272l1.4336-2.1504c8.7552-13.6704 17.92-27.4432 26.3168-38.7584a155.904 155.904 0 0 1 12.544-15.36 78.1824 78.1824 0 0 1 7.3216-7.2192 41.5744 41.5744 0 0 1 5.5296-3.9424 38.4 38.4 0 0 1 20.48-5.7856 42.5984 42.5984 0 0 1 17.0496 3.5328 74.0864 74.0864 0 0 1 9.3696 4.7104 141.1584 141.1584 0 0 1 13.5168 10.24 312.0128 312.0128 0 0 1 23.0912 21.3504 326.5024 326.5024 0 0 1 24.1152 26.88l-48.7936 47.872a184.32 184.32 0 0 0-17.3056-20.1216 427.60704 427.60704 0 0 0-15.7696-15.36c-2.9696 4.352-6.2976 9.0624-9.5744 14.08q-14.5408 21.8624-28.16 44.3392c-4.0448 6.4-7.3728 11.9296-9.6256 15.36l-2.7648 4.5568-0.9216 1.536a33.4848 33.4848 0 0 1-6.144 7.7312c-3.2256 5.12-14.4896 11.6736-48.64 21.3504a231.0656 231.0656 0 0 1-23.6544 6.5536l-52.1216-80.128-43.7248 64.6144-8.6528 15.0528a63.3344 63.3344 0 0 1-19.6608-7.168 465.92 465.92 0 0 1-68.2496-26.6752C428.032 547.8399999999999 398.08 506.88 387.9424 376.06399999999996c-0.4608-7.3216-0.5632-15.9744-0.4608-25.088h64.8192zM846.3872 524.6976c-21.8112 21.504-48.2816-6.7072-49.7152-8.3456l48.7936-47.872c3.7888 4.2496 22.8864 34.6624 0.9216 56.32zM790.7328 334.4384h0.1024l-0.1024 0.1536v-0.1536zM404.48 337.91999999999996l-102.4-199.68h512l-102.4 199.68H404.48z"  horiz-adv-x="1105" />

    
    <glyph glyph-name="wendang2" unicode="&#58902;" d="M320 32L320 896l480 0 0-192 0-32L1024 672l0-640L320 32zM928 576l-512 0 0-32 512 0L928 576zM928 448l-512 0 0-32 512 0L928 448zM928 320l-512 0 0-32 512 0L928 320zM928 192l-512 0 0-32 512 0L928 192zM832 896l19.2 0L1024 736 1024 704l-192 0L832 896zM288 0l320 0L704 0l0-128L0-128 0 736l288 0 0-320-192 0L96 384l192 0 0-96-192 0L96 256l192 0 0-96-192 0L96 128l192 0 0-96-192 0L96 0 288 0z"  horiz-adv-x="1024" />

    
    <glyph glyph-name="xuqiu1" unicode="&#58912;" d="M192 832a140.8 140.8 0 0 1-128-128v-640a137.6 137.6 0 0 1 128-128h576a64 64 0 0 1 64 64 64 64 0 0 1-64 64H222.72a30.08 30.08 0 0 0-30.72 32v576a32 32 0 0 0 31.36 32h455.04a27.52 27.52 0 0 0 25.6-25.6V640a59.52 59.52 0 0 1 64-64 64 64 0 0 1 64 64V704a139.52 139.52 0 0 1-128 128zM608 512h-320a32 32 0 0 0 0 64h320a32 32 0 0 0 0-64zM544 352h-256a32 32 0 0 0 0 64h256a32 32 0 0 0 0-64zM704 192a64 64 0 0 0-45.44 18.56 64 64 0 0 0 0 90.88l256 256a64 64 0 1 0 90.88-90.88l-256-256A64 64 0 0 0 704 192zM480 192h-192a32 32 0 0 0 0 64h192a32 32 0 0 0 0-64z"  horiz-adv-x="1024" />

    
    <glyph glyph-name="renwu" unicode="&#58903;" d="M884.8-118.4H144c-36.8 0-67.2 30.4-67.2 67.2V686.4c0 36.8 30.4 67.2 67.2 67.2h33.6v-100.8c0-36.8 30.4-67.2 67.2-67.2h538.4c36.8 0 67.2 30.4 67.2 67.2V753.6h33.6c36.8 0 67.2-30.4 67.2-67.2v-737.6c0.8-36.8-29.6-67.2-66.4-67.2z m-150.4 456c-20 19.2-52 19.2-72 0L482.4 166.4l-84 80c-20 19.2-52 19.2-72 0s-20-49.6 0-68l120-113.6c20-19.2 52-19.2 72 0l216 204.8c20 18.4 20 48.8 0 68z m-52 315.2h-336c-36.8 0-67.2 30.4-67.2 67.2v33.6C413.6 852 415.2 853.6 450.4 887.2H584c32.8-31.2 32-35.2 165.6-133.6V720c0-37.6-29.6-67.2-67.2-67.2z m-168 167.2c-36.8 0-67.2-30.4-67.2-67.2s30.4-67.2 67.2-67.2 67.2 30.4 67.2 67.2c0 37.6-30.4 67.2-67.2 67.2z"  horiz-adv-x="1024" />

    
    <glyph glyph-name="icon31" unicode="&#58910;" d="M753.658875 562.599677 233.042637 562.599677c-12.801561 0-23.175839 10.379395-23.175839 23.180955 0 12.801561 10.374278 23.175839 23.175839 23.175839L753.658875 608.956472c12.801561 0 23.180955-10.374278 23.180955-23.175839C776.839831 572.979072 766.460436 562.599677 753.658875 562.599677L753.658875 562.599677zM753.658875 562.599677M456.463126 166.044989 456.463126 166.044989l-223.421512 0.01535c-12.801561 0-23.175839 10.379395-23.175839 23.176862 0 12.801561 10.374278 23.180955 23.175839 23.180955l0 0 223.421512-0.017396c12.801561 0 23.180955-10.379395 23.180955-23.180955C479.644081 176.424384 469.264687 166.044989 456.463126 166.044989L456.463126 166.044989zM456.463126 166.044989M753.658875 364.321822 233.042637 364.321822c-12.801561 0-23.175839 10.379395-23.175839 23.180955 0 12.801561 10.374278 23.175839 23.175839 23.175839L753.658875 410.678616c12.801561 0 23.180955-10.374278 23.180955-23.175839C776.839831 374.701217 766.460436 364.321822 753.658875 364.321822L753.658875 364.321822zM753.658875 364.321822M700.898231-50.651354l-46.443775 0c-12.801561 0-23.180955 10.374278-23.180955 23.175839s10.379395 23.180955 23.180955 23.180955l46.301536 0c0.789992 0.099261 11.739369 1.874697 40.897456 24.12649 20.183691 15.404852 44.298925 37.009915 67.895343 60.84374 23.220864 23.447015 44.703131 47.765887 60.485583 68.481697 21.814842 28.622898 24.724101 39.770795 25.022906 41.180911L895.057279 633.276367c0 75.818803-61.692061 137.5037-137.510864 137.5037L229.155097 770.780067c-75.819826 0-137.504724-61.684898-137.504724-137.5037l0-500.04062c0-75.835176 61.684898-137.53133 137.504724-137.53133l225.224578 0c12.801561 0 23.174815-10.379395 23.174815-23.180955s-10.374278-23.175839-23.174815-23.175839L229.155097-50.652378c-101.377922 0-183.861518 82.492806-183.861518 183.888124L45.293579 633.276367c0 101.377922 82.483596 183.859471 183.861518 183.859471l528.391319 0c101.383038 0 183.866634-82.48155 183.866634-183.859471l0-443.388343c0-10.583033-3.6399-27.588335-31.973202-65.473177-16.95516-22.665209-40.307008-49.359174-65.760726-75.154677-25.908066-26.25599-52.54575-50.094932-75.007321-67.1207C729.891566-47.257048 711.416795-50.651354 700.898231-50.651354L700.898231-50.651354zM700.898231-50.651354M651.046846-45.858188c-12.801561 0-23.175839 10.379395-23.175839 23.180955L627.871007 93.958184c0 90.870614 73.928756 164.80551 164.80551 164.80551l102.456487 0c12.801561 0 23.180955-10.379395 23.180955-23.180955s-10.379395-23.175839-23.180955-23.175839L792.676517 212.4069c-65.313541 0-118.448716-53.136198-118.448716-118.448716l0-116.635417C674.227802-35.478793 663.848407-45.858188 651.046846-45.858188L651.046846-45.858188zM651.046846-45.858188"  horiz-adv-x="1024" />

    
    <glyph glyph-name="nvtouxiang" unicode="&#59006;" d="M23.272194-128.000004C23.272194-128.000004 23.29447 17.085941 143.161892 55.743846 263.029316 94.391356 404.074534 121.49733 438.88328 171.754687 438.88328 171.754687 310.316641 158.208382 265.835993 200.762965 221.35386 243.307153 237.80634 286.819571 245.532871 310.016987 245.532871 310.016987 219.427795 318.720659 218.455112 340.92757 217.479458 363.179031 285.163461 450.203868 293.864163 507.24774 302.56338 564.278248 335.422302 746.049998 403.10185 820.484876 470.787339 894.919761 542.345746 890.094951 570.373915 890.094951 598.408024 890.094951 731.633154 882.209521 778.222524 796.307354 843.487439 675.943935 865.284486 480.165527 903.896356 432.795041 942.600298 385.408219 968.70537 324.521128 916.486311 318.72066 916.486311 318.72066 960.271974 206.652534 879.74259 178.511505 818.830254 157.250548 737.662316 173.703027 737.662316 173.703027 737.662316 173.703027 732.446945 131.648894 972.455032 71.193942 1064.095292 48.165817 1134.828035-15.777435 1133.926629-127.936146"  horiz-adv-x="1211" />

    
    <glyph glyph-name="nantouxiang" unicode="&#58891;" d="M42.706-125.996s-2.228 131.378 26.95 159.24c29.18 27.862 41.002 77.991 195.665 100.897 154.591 22.834 138.42 104.26 143.416 101.675-0.935 30.836-3.917 74.239-3.917 74.239S324.254 344.183 300.5 411.73c-49.733 20.003-43.157 32.854-48.008 58.697 0 0-15.093 104.827 18.542 102.632 0 0 21.848 0 16.494 24.109-1.76 40.075-1.725 117.819 0.934 144.477 2.66 26.764 22.46 98.985 78.59 109.676 56.165 10.692 33.634 5.275 52.32 8.036 18.722 2.656 13.368 13.347 48.117 13.347l72.12 14.763c34.75 0 56.993-56.715 75.68-59.44 18.721-2.656 23.177 8.177 61.483 1.026 56.095-10.692 48.297-87.054 50.956-113.819 2.695-26.728 7.618-99.374 2.264-123.412-5.354-24.038 11.32-21.383 11.32-21.383 40.102 0 27.525-102.667 27.525-102.667-6.145-27.153-22.926-30.41-60.262-54.024-23.681-67.547-99.468-117.288-99.468-117.288s-0.359-56.042-0.646-68.185c1.078-4.814-8.589-74.522 123.22-94.134 154.663-22.87 181.362-73.035 210.47-100.897 29.178-27.862 32.305-159.24 32.305-159.24H42.706z"  horiz-adv-x="1024" />

    
    <glyph glyph-name="spinner-alt-4" unicode="&#58890;" d="M819.09005653 707.09951981c11.6208672 11.6208672 9.48018133 31.19285441-5.9123712 42.30403306-56.16752427 40.77497279-122.1210432 68.90970347-193.68111893 80.22475947-18.75648747 2.9561856-34.14904-9.27630613-34.14904-25.79017067s15.39255253-31.19285441 34.04710187-34.55678933c55.25008747-10.09180587 106.52461547-31.80447893 151.07127361-62.48764479 15.80030187-10.9073056 37.00328747-11.416992 48.62415465 0.30581226z m51.98809067-100.91805761c30.68316693-44.54665707 52.39584-95.82118507 62.4876448-151.07127359 3.36393493-18.6545504 18.04292587-34.04710187 34.55678933-34.04710187s28.7463552 15.2906144 25.79017067 34.04710187c-11.31505493 71.5600768-39.4497856 137.51359467-80.2247584 193.68112-11.11117973 15.39255253-30.68316693 17.5332384-42.30403413 5.9123712-11.6208672-11.6208672-11.11117973-32.92578987-0.30581227-48.52221761zM477.39578667 829.62831234c-71.5600768-11.31505493-137.51359467-39.4497856-193.68112-80.22475947-15.39255253-11.11117973-17.5332384-30.68316693-5.91237014-42.30403306 11.6208672-11.6208672 32.92578987-11.11117973 48.52221654-0.40775041 44.54665707 30.68316693 95.82118507 52.39584 151.17321066 62.48764588 18.6545504 3.36393493 33.9451648 18.04292588 33.9451648 34.55678934s-15.2906144 28.84829333-34.04710186 25.89210772z m456.17000532-516.6189024c-10.09180587-55.25008747-31.80447893-106.52461547-62.48764479-151.07127361-10.80536747-15.59642667-11.21311787-36.79941227 0.40774933-48.52221758 11.6208672-11.6208672 31.1928544-9.3782432 42.30403414 5.91237118 40.77497279 56.16752427 68.8077664 122.01910507 80.12282133 193.57918188 2.9561856 18.75648747-9.27630613 34.14904-25.79017067 34.14903999s-31.09091627-15.39255253-34.55678934-34.04710186zM183.1024224 648.79130861c-40.77497279-56.16752427-68.90970347-122.01910507-80.2247584-193.57918188-2.9561856-18.75648747 9.27630613-34.04710187 25.7901696-34.04710183s31.19285441 15.39255253 34.55678933 34.04710183C173.3164288 510.4622142 195.02910187 561.73674221 225.7122688 606.28339927c10.80536747 15.59642667 11.21311787 36.79941227-0.40774933 48.5222176s-31.09091627 9.27630613-42.20209707-6.01430826z m436.394144-710.30002133c71.5600768 11.31505493 137.51359467 39.4497856 193.68111892 80.2247584 15.39255253 11.11117973 17.5332384 30.68316693 5.91237121 42.30403413-11.6208672 11.6208672-32.8238528 11.21311787-48.42027946 0.40774933-44.54665707-30.68316693-95.82118507-52.39584-151.17321067-62.48764587-18.6545504-3.36393493-33.9451648-18.04292588-33.9451648-34.55678935s15.2906144-28.84829333 33.9451648-25.89210664zM277.80229653 61.02007980999997c-11.6208672-11.6208672-9.48018133-31.19285441 5.91237014-42.30403413 56.16752427-40.77497279 122.1210432-68.90970347 193.68112-80.2247584 18.75648747-2.9561856 34.14904 9.27630613 34.14904 25.7901696s-15.2906144 31.1928544-33.9451648 34.55678933c-55.3520256 10.09180587-106.62655361 31.80447893-151.17321067 62.48764586-15.69836481 10.9073056-37.00328747 11.416992-48.62415467-0.30581226zM128.76977173 347.05651179999995c-16.51386347 0-28.7463552-15.2906144-25.79017067-34.04710186 11.31505493-71.5600768 39.4497856-137.51359467 80.22475841-193.68112002 11.11117973-15.39255253 30.68316693-17.5332384 42.30403413-5.91237117s11.11117973 32.92578987 0.4077504 48.52221758c-30.68316693 44.54665707-52.39584 95.82118507-62.48764587 151.07127361-3.46587308 18.6545504-18.14486293 34.04710187-34.6587264 34.04710186z"  horiz-adv-x="1097" />

    
    <glyph glyph-name="tongji2" unicode="&#59149;" d="M793.6 876.8l76.8-64L665.6 640 332.8 716.8 0 403.2l339.2 224 339.2-96 268.8 211.2 76.8-64V896zM371.2 480V-128h281.6V409.6zM32 288V-128H313.6V473.6zM729.6-128h281.6V633.6l-281.6-224z"  horiz-adv-x="1024" />

    
    <glyph glyph-name="zhouqi" unicode="&#59154;" d="M933.269084 598.04518c-14.667579-11.000685-21.916092-29.335159-14.667579-44.002738 25.582987-66.004107 40.250567-139.342004 32.916777-212.594625-18.334474-198.012322-175.669846-363.02259-373.085232-388.690854-292.669375-44.002738-537.754393 201.679217-501.170721 491.193357 25.668264 198.182875 190.252149 359.526248 391.419706 377.775446 128.08549 11.085961 245.085018-29.249882 329.16777-102.587779a38.800864 38.800864 0 0 1 44.002738-3.666895h3.666895c18.249198 14.667579 21.916092 40.335843 3.581618 55.003422A507.992851 507.992851 0 0 1 450.60339 891.396768 509.272001 509.272001 0 0 1 4.180262 451.454663c-40.250567-333.687431 241.5034-615.953058 574.252788-575.617215 223.168926 29.335159 402.42039 205.346112 438.918786 425.359802 14.667579 99.006161 3.666895 198.012322-32.8315 282.265627a31.893458 31.893458 0 0 1-51.165975 14.752856l-0.085277-0.170553zM785.569971 348.866884H505.18043l-198.182875 271.179665c-11.256514 18.419751-7.504343 40.42112 7.504343 51.421805 14.923409 11.000685 41.103333 7.33379 52.274571-7.33379l175.669846-242.01506h243.038379c22.427752 0 37.351161-14.667579 37.351162-36.668949s-14.838133-36.668948-37.265885-36.668948z"  horiz-adv-x="1024" />

    
    <glyph glyph-name="daoqixunjianshebei" unicode="&#59204;" d="M674.905884 360.717652c-64.273391 0-116.341188-52.067797-116.341188-116.341188s52.067797-116.341188 116.341188-116.341188 116.341188 52.067797 116.341188 116.341188-52.067797 116.341188-116.341188 116.341188z m57.570897-139.270773h-58.20587c-12.840568 0-23.282348 10.44178-23.282348 23.282348 0 2.328235 0.352763 4.65647 0.987736 6.773047-0.28221 1.481604-0.423315 2.963208-0.423316 4.515364v58.20587c0 12.840568 10.44178 23.282348 23.282348 23.282348s23.282348-10.44178 23.282348-23.282348v-46.282486h34.359102c12.840568 0 23.282348-10.44178 23.282348-23.282348s-10.44178-23.211796-23.282348-23.211795zM512 896C229.2253 896 0 666.7747 0 384s229.2253-512 512-512 512 229.2253 512 512S794.704148 896 512 896z m-11.288411-535.282348H349.094116v-162.905884h121.562078c3.668734-16.297644 9.312939-31.889762 16.579854-46.564696h-161.565385c-12.699463 0.070553-23.000138 10.371228-23.141243 23.07069V593.682238c0 12.770015 10.371228 23.07069 23.141243 23.07069h372.658674c12.699463-0.070553 23.000138-10.371228 23.141243-23.07069V448.696707c-14.957145 3.386523-30.549263 5.22089-46.564696 5.22089V570.188232H349.094116v-162.905884H543.254788c-16.438749-13.263883-30.76092-28.926554-42.543199-46.564696z m81.064903 162.905884v-46.564696H442.152956v46.564696h139.623536z m93.129392-442.152956c-89.954527 0-162.905884 72.951357-162.905884 162.905884S584.880805 407.282348 674.905884 407.282348s162.905884-72.951357 162.905884-162.905884-72.951357-162.905884-162.905884-162.905884z"  horiz-adv-x="1024" />

    
    <glyph glyph-name="xunjianjilu" unicode="&#59184;" d="M910.937 828.392h-796c-6.6 0-12-5.4-12-12v-866c0-6.6 5.4-12 12-12h796c6.6 0 12 5.4 12 12v866c0 6.6-5.4 12-12 12z m-504.263-61.211c118.741 0 215-96.259 215-215 0-36.462-9.089-70.796-25.105-100.882l195.825-195.825c4.667-4.667 4.667-12.304 0-16.971l-53.74-53.74c-4.667-4.667-12.304-4.667-16.971 0L530.228 376.219c-34.957-24.591-77.566-39.037-123.554-39.037-118.741 0-215 96.259-215 215s96.259 214.999 215 214.999zM191.91 288.278c0 6.6 5.4 12 12 12h166.999c6.6 0 12-5.4 12-12v-76c0-6.6-5.4-12-12-12H203.91c-6.6 0-12 5.4-12 12v76zM833 12.36c0-6.6-5.4-12-12-12H205c-6.6 0-12 5.4-12 12v76c0 6.6 5.4 12 12 12h616c6.6 0 12-5.4 12-12v-76zM522.278 558.234l-22.939 6.514c-10.952-42.671-21.523-77.788-31.719-105.352h-107.9v-20.107h182.383v20.107H488.86c9.629 26.055 20.767 58.999 33.418 98.838z m-13.027 41.348H393.138v-19.824h116.113v19.824z m-64.854-113.848l21.24 5.381c-4.909 26.055-11.045 52.109-18.408 78.164l-19.824-4.814c6.607-22.847 12.271-49.09 16.992-78.731z m-70.517 99.971c29.075 24.165 54.847 54.468 77.314 90.908 18.125-32.285 45.596-61.455 82.412-87.51 5.286 7.173 10.479 13.594 15.576 19.258-37.007 21.899-65.515 50.977-85.527 87.227l3.682 5.664h-26.904c-20.015-38.516-47.578-71.084-82.695-97.705 6.23-5.855 11.611-11.802 16.142-17.842z m-0.283-32.569c7.552-23.413 14.443-49.185 20.674-77.314l20.957 6.23c-7.554 30.208-14.917 55.791-22.09 76.748l-19.541-5.664z m-99.121-50.693c13.403 21.333 24.922 48.804 34.551 82.412v-158.027h19.824V582.589c9.251-12.085 17.181-23.696 23.789-34.834l15.576 12.178c-7.741 10.95-16.709 22.656-26.904 35.117l-12.461-9.062v41.914H366.8v18.691h-37.949v56.924h-19.824v-56.924h-40.781v-18.691h38.232c-9.44-38.327-23.13-71.841-41.064-100.537 3.774-8.308 6.796-16.616 9.062-24.922z"  horiz-adv-x="1024" />

    
    <glyph glyph-name="xunjian" unicode="&#58889;" d="M301.20618667 305.97347555c-62.08170667-31.51872-115.14652445-72.56974222-115.14652445-113.3056v-21.12398222c0-43.62581333 115.03616-81.21799111 115.03616-81.21799111l44.45297778 5.632-3.97425778-0.11150222c0.00113778 0-37.27701333 211.65511111-40.36835555 210.12707555zM637.48096 656.12231111c0 99.6352-135.60604445 149.38908445-135.60604445 149.38908444-19.21024 8.66531555-38.23616 6.71516445-57.92426666 0 0 0-135.64245333-43.68270222-135.64245334-149.38908444 0-15.75025778-28.59349333-12.38357333-38.0871111-62.31950222h405.38453333c-17.22140445 50.26816-38.12465778 46.56924445-38.12465778 62.31950222z m-49.75274667-559.77870222l7.98492445 0.20252444c-1.17646222 0.14791111-3.7888 0.44259555-7.80060445 0.90112-0.07281778-0.31175111-0.18432-1.10364445-0.18432-1.10364444z m56.78193778 209.55704889c-3.71598222 1.80337778-39.30225778-209.152-39.30225778-209.152l-9.49475555-0.20252445c0.47786667-0.05461333 1.54737778-0.20252445 1.54737777-0.20252444l47.80145778-6.12807111s114.85297778 37.53528889 114.85297778 81.32835555v21.12398222c0 41.58350222-52.36622222 82.37624889-115.4048 113.23164445z m-28.15203556 10.39587555c-16.74353778 7.19530667-33.52462222 15.84128-50.23061333 21.39932445-4.12216889 1.34257778-30.39573333 13.17319111-14.02197333 62.99989333h-0.25713778c38.71288889 39.68910222 65.9456 78.45774222 65.9456 164.20067556H328.98958222c0-86.62584889 26.60693333-125.04519111 65.43018667-164.69674667 16.85390222-43.93870222-13.17432889-60.25898667-19.50378667-62.50382222-16.92672-6.144-28.2624-13.46787555-45.48380444-21.39932445-3.09134222-1.41767111 26.89934222-207.12561778 28.62990222-218.8288a1658.93688889 1658.93688889 0 0 0 51.22503111 5.13251556l63.00216889-110.4896 64.61895111 110.47253333c21.1968-1.80337778 40.33422222-3.88209778 51.00657778-5.13365333 1.69073778 11.60760889 32.60302222 217.15285333 28.44444444 218.84700444zM345.54993778 95.95676445000004l12.65891555 0.38684444s-0.14677333 0.79189333-0.14677333 1.12184889c-5.59331555-0.64398222-9.49361778-1.12184889-9.49361778-1.12184889l-3.01852444-0.38684444z"  horiz-adv-x="1024" />

    
    <glyph glyph-name="danyuance" unicode="&#59038;" d="M893.09 564.79H726V782.54A35.45 35.45 0 0 1 690.52 818H538.6a35.45 35.45 0 0 1-35.46-35.46v-217.75H320.85V731.9a35.42 35.42 0 0 1-10.74 25.42 36 36 0 0 1-25.71 10l-10-0.3c-94.91-5.49-170.57-81.21-176.16-177.15L98 581v-456.8c0-103.31 84.08-187.38 187.39-187.38h607.7a35.46 35.46 0 0 1 35.46 35.46v557a35.46 35.46 0 0 1-35.46 35.51z m-319 182.29h81v-30.36h-81z m0-101.28h81v-81h-81z m0-151.92h81V237.3l-40.5-54-40.5 54z m-405.17 85.65l0.2 7.32a116.51 116.51 0 0 0 80.81 104.33v-382.93c-13.69-2.62-26.57-7.21-39-12.63-2.82-1.23-5.55-2.54-8.3-3.91a186.62 186.62 0 0 1-32-19.75c-0.54-0.42-1.21-0.65-1.74-1.08z m688.71-571.8H285.39c-64.1 0-116.27 52-116.47 116v0.6a115.42 115.42 0 0 0 1.67 16.53c0.43 3 0.7 6 1.35 8.91a115.75 115.75 0 0 0 4.52 14.55c0.75 2 1.29 4.16 2.14 6.14a117 117 0 0 0 61.3 60.94c0.33 0.14 0.68 0.22 1 0.36a115.85 115.85 0 0 0 19.55 6.08c1.93 0.41 3.93 0.59 5.9 0.9a115.52 115.52 0 0 0 19 1.92h1c2.51 0.07 4.71 1 7.07 1.61 2 0.48 4.19 0.55 6.06 1.37 2.44 1.06 4.39 2.82 6.5 4.38 1.52 1.12 3.28 1.88 4.6 3.22 2 2 3.33 4.64 4.8 7.12 0.83 1.41 2 2.54 2.68 4.06a35.43 35.43 0 0 1 2.76 13.68V493.88h182.32v-268.4a35.15 35.15 0 0 1 7.12-21.26l76-101.28a35.38 35.38 0 0 1 56.68 0l76 101.28a35.15 35.15 0 0 1 7.06 21.26v268.4h131.63z"  horiz-adv-x="1024" />

    
    <glyph glyph-name="shebei" unicode="&#58965;" d="M221.8496 324.2752a102.4 68.2752 90 1 1 136.5504 0 102.4 68.2752 90 1 1-136.5504 0ZM426.6496 324.2752a102.4 68.2752 90 1 1 136.5504 0 102.4 68.2752 90 1 1-136.5504 0ZM512-119.4752c235.648 0 426.6752 191.0272 426.6752 426.6752 0 235.648-191.0272 426.6752-426.6752 426.6752-235.648 0-426.6752-191.0272-426.6752-426.6752 0-235.648 191.0272-426.6752 426.6752-426.6752z m0 51.2C304.64-68.2752 136.5248 99.84 136.5248 307.2S304.64 682.6752 512 682.6752 887.4752 514.56 887.4752 307.2 719.36-68.2752 512-68.2752zM918.4512 750.9248C824.448 841.5744 673.408 896 509.5424 896 346.368 896 195.8656 842.0352 101.76 751.9744A25.6 25.6 0 1 1 137.1648 715.008C221.184 795.392 358.9376 844.8 509.5424 844.8c151.2192 0 289.4336-49.792 373.3504-130.7392a25.6 25.6 0 0 1 35.5584 36.864zM494.9248 870.4m25.6 0l0 0q25.6 0 25.6-25.6l0-119.4752q0-25.6-25.6-25.6l0 0q-25.6 0-25.6 25.6l0 119.4752q0 25.6 25.6 25.6Z"  horiz-adv-x="1024" />

    
    <glyph glyph-name="shezhi1" unicode="&#59132;" d="M589.312 397.824c0 34.816 22.016 64.512 52.736 76.288-7.168 28.672-18.432 55.808-33.28 80.896-30.208-13.312-66.56-7.68-91.136 16.896-24.576 24.576-30.208 60.928-16.896 91.136a340.611 340.611 0 0 1-80.896 33.28c-11.776-30.72-41.472-52.736-76.288-52.736-34.816 0-64.512 22.016-76.288 52.736-28.672-7.168-55.808-18.432-80.896-33.28 13.312-30.208 7.68-66.56-16.896-91.136s-60.928-30.208-91.136-16.896c-14.848-25.088-26.112-52.224-33.28-80.896 30.72-11.776 52.736-41.472 52.736-76.288 0-34.816-22.016-64.512-52.736-76.288 7.168-28.672 18.432-55.808 33.28-80.896 30.208 13.312 66.56 7.68 91.136-16.896 24.576-24.576 30.208-60.928 16.896-91.136 25.088-14.848 52.224-26.112 80.896-33.28 11.776 30.72 41.472 52.736 76.288 52.736 34.816 0 64.512-22.016 76.288-52.736 28.672 7.168 55.808 18.432 80.896 33.28-13.312 30.208-7.68 66.56 16.896 91.136 24.576 24.576 60.928 30.208 91.136 16.896 14.848 25.088 26.112 52.224 33.28 80.896-30.72 11.776-52.736 40.96-52.736 76.288z m-245.76-81.92c-45.056 0-81.92 36.864-81.92 81.92s36.864 81.92 81.92 81.92 81.92-36.864 81.92-81.92-36.864-81.92-81.92-81.92z m336.896 346.624h298.496v-75.264H680.448z m0-303.104h298.496v-75.264H680.448zM196.608 56.32h782.336v-75.264H196.608z"  horiz-adv-x="1024" />

    
    <glyph glyph-name="gengduo" unicode="&#59093;" d="M363.2 620.544h497.856a43.328 43.328 0 0 1 0 86.72H363.2a43.328 43.328 0 0 1 0-86.72z m497.856-196.48H363.2a43.328 43.328 0 0 1 0-86.72h497.856a43.328 43.328 0 0 1 0 86.72z m0-283.136H363.2a43.328 43.328 0 0 1 0-86.72h497.856a43.328 43.328 0 1 1 0 86.72zM137.728 663.872a64 64 0 1 1 128 0 64 64 0 0 1-128 0zM137.728 382.08a64 64 0 1 1 128 0 64 64 0 0 1-128 0zM137.728 100.352a64 64 0 1 1 128 0 64 64 0 0 1-128 0z"  horiz-adv-x="1024" />

    
    <glyph glyph-name="shenhe1" unicode="&#58886;" d="M951.872 300.72L564.08-87.072c-12.128-12.128-31.792-12.128-43.936 0-2.416 2.432-4 5.312-5.456 8.224l-186.624 186.64c-11.888 11.872-11.888 31.136 0 43.008 11.872 11.872 31.136 11.872 43.008 0l171.504-171.504 365.36 365.36c12.128 12.128 31.808 12.128 43.936 0s12.128-31.808 0-43.936z m-334.576-75.776c-17.488-5.872-36.816 2.448-43.184 18.608l-75.376 172.272H203.344l-75.376-172.272c-6.368-16.16-25.696-24.48-43.184-18.608-17.472 5.888-26.48 23.744-20.128 39.888L318.112 844.096c5.136 13.024 18.704 20.8 32.928 20.304 14.224 0.496 27.792-7.28 32.928-20.304l253.456-579.264c6.352-16.144-2.656-34-20.128-39.888zM351.04 753.376L231.344 479.824h239.392L351.04 753.376z"  horiz-adv-x="1024" />

    
    <glyph glyph-name="fabu" unicode="&#58934;" d="M731.487448 848.985626c39.130008 0 70.887621-31.604022 70.887621-70.529241v-329.075021l-389.497937-399.604262h11.043232-283.929344c-39.160726 0-70.872262 31.46067-70.872262 70.288614V848.985626h-23.653099 686.021789zM21.81256 896V120.070836c0-64.810515 52.90717-117.297869 118.17846-117.297869H433.837259l6.952578 7.029374 402.107804 406.628515 6.783627 6.860423V778.461505C849.681268 843.338576 796.753619 896 731.487448 896H21.81256zM778.215118 259.613881l88.663284-88.663283 18.226197-19.485649 97.46408 98.1962-127.071411 127.80865-95.610742-100.259446 18.328592-17.596472z m139.133468-6.635155l-35.336297-35.566684-59.301698 57.187255 34.17412 37.117959 60.463875-58.73853zM772.327442 291.289579l-256.456935-256.456935-4.991725-4.991725-1.382324-6.92186-23.315198-116.570868-6.860423-34.291874 34.291874 6.860423 116.570869 23.315197 6.921859 1.382324 4.991726 4.991726 256.456935 256.456935 16.485493 16.485493-16.485493 16.485493-93.255671 93.255671-16.485494 16.485493-16.485493-16.485493z m16.203909-49.973571l60.689142-59.890466-236.167491-233.474519-75.6336-16.439416 18.830324 77.748044 232.281625 232.056357zM154.397908 503.850048h540.91361c13.065521 0 23.653099 9.753064 23.653099 21.784402 0 12.031338-10.592697 21.784402-23.653099 21.784402H154.397908c-13.065521 0-23.653099-9.753064-23.653099-21.784402 0-12.031338 10.592697-21.784402 23.653099-21.784402zM154.397908 656.351101h540.91361c13.065521 0 23.653099 9.753064 23.653099 21.784402s-10.592697 21.784402-23.653099 21.784401H154.397908c-13.065521 0-23.653099-9.753064-23.653099-21.784401s10.592697-21.784402 23.653099-21.784402z"  horiz-adv-x="1024" />

    
    <glyph glyph-name="benzujieguo" unicode="&#59339;" d="M883.0976 572.8256l-342.016 151.9616c-9.8304 4.3008-21.0944 4.3008-30.9248 0L167.936 572.8256c-13.7216-6.144-22.528-19.6608-22.528-34.816 0-14.9504 8.8064-28.672 22.528-34.816L509.952 351.232c9.8304-4.3008 21.0944-4.3008 30.9248 0l342.016 151.9616c13.7216 6.144 22.528 19.6608 22.528 34.816 0.2048 14.9504-8.6016 28.672-22.3232 34.816zM525.5168 157.9008c-5.3248 0-10.6496 1.024-15.36 3.2768L167.936 313.1392c-19.2512 8.6016-27.8528 30.9248-19.2512 50.176 8.6016 19.2512 30.9248 27.8528 50.176 19.2512l326.656-145.2032 326.656 145.2032c19.2512 8.6016 41.5744-0.2048 50.176-19.2512 8.6016-19.2512-0.2048-41.5744-19.2512-50.176l-342.016-151.9616c-4.9152-2.2528-10.24-3.2768-15.5648-3.2768z m0-190.0544c-5.3248 0-10.6496 1.024-15.36 3.2768L167.936 123.0848c-19.2512 8.6016-27.8528 30.9248-19.2512 50.176 8.6016 19.2512 30.9248 27.8528 50.176 19.2512l326.656-145.2032 326.656 145.2032c19.2512 8.6016 41.5744-0.2048 50.176-19.2512 8.6016-19.2512-0.2048-41.5744-19.2512-50.176l-342.016-151.9616c-4.9152-2.2528-10.24-3.2768-15.5648-3.2768z m0 0"  horiz-adv-x="1024" />

    
    <glyph glyph-name="qita" unicode="&#58949;" d="M736.1792 439.296c-19.92704 11.52512-44.48256 11.52512-64.40448 0s-32.19968-32.82432-32.19968-55.87456 12.27264-44.34944 32.19968-55.86944c19.92704-11.52512 44.48256-11.52512 64.40448 0 19.93216 11.52 32.19968 32.8192 32.19968 55.86944S756.11136 427.77088 736.1792 439.296zM997.71904 538.2912c-10.9312 34.4064-25.1904 67.37408-43.18208 98.6624-12.16512 21.15584-40.35072 22.93248-54.0416 3.39968-8.56064-12.20096-7.19872-24.61184-0.19968-37.36064 59.61216-108.55424 74.09152-223.05792 40.13056-342.07744-68.73088-240.91648-318.67904-377.15456-558.4128-305.82784-175.66208 52.25472-303.3344 211.02592-316.88192 394.368-5.53984 74.97728 6.90688 146.90816 36.8896 215.91552 82.54976 189.9776 293.2224 299.58656 495.7696 257.8176 46.5664-9.6 90.61888-25.79968 131.99872-49.2544 7.08608-4.00896 14.40768-6.69184 22.68672-5.41184 13.91104 2.15552 24.73472 12.30336 27.22816 25.43104 2.7392 14.39232-3.70176 27.47392-17.72544 35.25632C647.23456 892.96384 525.46048 911.55456 397.50656 882.9184 165.39136 830.97088 0.05632 622.81728 0 384.34816c-0.00512-38.14912 4.0192-75.87328 12.42112-113.06496 65.00864-287.8208 359.52128-461.42976 642.048-378.55232 199.6288 58.56256 343.83872 232.51456 364.79488 440.70912C1026.2784 403.11296 1018.94144 471.48544 997.71904 538.2912zM478.62784 439.296c-19.92704-11.52512-32.2048-32.82432-32.2048-55.87456 0-35.63008 28.83584-64.51712 64.40448-64.51712s64.40448 28.88704 64.40448 64.51712c0 23.05024-12.27264 44.34944-32.2048 55.87456C523.10528 450.82112 498.55488 450.82112 478.62784 439.296zM285.60896 439.296c-19.92704-11.52512-32.2048-32.82432-32.2048-55.87456s12.27264-44.34944 32.2048-55.86944c19.92704-11.52512 44.47744-11.52512 64.40448 0 19.92704 11.52 32.19968 32.8192 32.19968 55.86944s-12.27264 44.34944-32.19968 55.87456C330.0864 450.82112 305.53088 450.82112 285.60896 439.296z"  horiz-adv-x="1024" />

    
    <glyph glyph-name="liucheng" unicode="&#58974;" d="M756.184615 431.261538h-472.615384c-55.138462 0-102.4 47.261538-102.4 110.276924 0 63.015385 47.261538 110.276923 102.4 110.276923h362.338461c23.630769-63.015385 86.646154-102.4 157.538462-102.4 94.523077 0 165.415385 78.769231 165.415384 165.415384S890.092308 880.246154 803.446154 880.246154c-78.769231 0-141.784615-55.138462-157.538462-118.153846H283.569231C165.415385 762.092308 70.892308 659.692308 70.892308 541.538462s94.523077-220.553846 212.676923-220.553847h472.615384c55.138462 0 102.4-47.261538 102.4-110.276923s-47.261538-110.276923-102.4-110.276923H401.723077c-23.630769 70.892308-86.646154 126.030769-157.538462 126.030769-94.523077 0-165.415385-78.769231-165.415384-165.415384s78.769231-165.415385 165.415384-165.415385c70.892308 0 133.907692 47.261538 157.538462 102.4h362.338461c118.153846 0 212.676923 94.523077 212.676924 220.553846s-102.4 212.676923-220.553847 212.676923z m47.261539 338.707693c31.507692 0 55.138462-23.630769 55.138461-55.138462s-23.630769-55.138462-55.138461-55.138461-63.015385 23.630769-63.015385 55.138461 31.507692 55.138462 63.015385 55.138462z m-559.261539-771.938462c-31.507692 0-55.138462 23.630769-55.138461 55.138462s23.630769 55.138462 55.138461 55.138461 55.138462-23.630769 55.138462-55.138461-23.630769-55.138462-55.138462-55.138462z"  horiz-adv-x="1024" />

    
    <glyph glyph-name="wodexuqiu" unicode="&#58929;" d="M919.4752 367.27808c-36.38784-4.0704-83.90656-12.44672-147.92192-24.00768-12.27264-2.21696-21.14048-3.28704-27.48416-3.73248 9.1392 10.17344 23.3216 23.37792 33.08544 32.48128 18.88768 17.58208 36.70016 34.19136 46.15168 48.64512 14.53056 22.21056 9.33376 35.99872 2.432 43.64288-12.73856 14.14144-30.24384 33.57184-272.21504-91.392-131.46112-67.90144-155.88864-51.328-156.0832-51.30752-0.72192 1.73056 0.3328 8.44288 4.20352 14.2592 3.69664 5.54496 19.04128 20.24448 32.55808 33.2032 54.75328 52.43392 77.76256 77.8752 68.38272 101.25312-2.66752 6.59456-10.22976 17.65888-31.21664 17.65888-57.58976 0-159.7184-31.31392-247.92576-100.08576-34.7904-27.14112-79.27808-38.44608-117.72416-42.75712a387.66592 387.66592 0 0 0-39.82848-2.39104 445.45024 445.45024 0 0 1 5.51936-39.85408 414.23872 414.23872 0 0 1 40.06912 2.70848c43.8272 5.0944 94.976 18.52416 136.46848 50.88256 69.10464 53.89312 151.3984 84.7616 206.96576 90.55744-13.07136-15.48288-35.55328-37.03296-48.27648-49.20832-19.84-19.0208-32.3072-31.11936-38.13888-39.87456-11.70944-17.58208-16.9984-44.67712-0.91648-62.64832 9.00608-10.07616 22.48192-15.15008 40.82688-15.15008 35.43552 0 88.98048 18.944 163.39456 57.35936 124.32384 64.2048 182.26176 86.17984 208.80896 93.43488-8.24832-8.94464-19.54816-19.48672-30.61248-29.77792-37.01248-34.4832-63.73376-59.38176-51.34848-84.13696 10.48064-20.86912 39.56224-20.30592 79.9744-12.97408 57.58464 10.41408 102.64064 18.3552 137.18528 22.63552 15.83616 1.96096 29.45536 3.13856 40.98048 3.41504 1.59232 13.2608 2.59584 26.58816 3.00032 39.936-11.71968-0.10752-25.04704-1.07008-40.31488-2.77504zM512.03584-24.28928c-191.37024 0-351.8976 132.54144-395.8784 310.51776a433.08032 433.08032 0 0 0-40.2176-3.03104c45.92128-198.61504 223.72864-347.32032 436.096-347.32032 221.87008 0 406.016 162.2784 441.41056 374.25664-11.7248-0.512-25.6768-1.89952-41.49248-3.98336-36.5312-187.88864-201.50272-330.43968-399.91808-330.43968zM103.75168 384c0 225.13152 183.15776 408.28928 408.28928 408.28928 224.02048 0 406.33344-181.39648 408.12032-405.00736 14.848 1.57696 28.032 2.45248 39.84896 2.54464-3.14368 244.4032-202.83392 442.29632-447.96928 442.29632-247.08608 0-448.11776-201.03168-448.11776-448.11776 0-7.21408 0.66048-14.26432 1.024-21.39136a363.1104 363.1104 0 0 1 39.77216 2.33472c-0.3328 6.3488-0.96768 12.6208-0.96768 19.05152z"  horiz-adv-x="1024" />

    
    <glyph glyph-name="sideIcon_xuqiuchaxun" unicode="&#58998;" d="M664.5 557.28H320.19c-15.75 0-27 13.5-27 27s13.5 27 27 27H664.5c15.75 0 27-13.5 27-27s-11.25-27-27-27zM473.96 155.97H311.01c-11.29 0-19.36 13.5-19.36 27s9.68 27 19.36 27h162.94c11.29 0 19.36-13.5 19.36-27s-8.06-27-19.35-27zM581.41 356.62h-264.7c-13.72 0-23.53 13.5-23.53 27s11.76 27 23.53 27h264.7c13.72 0 23.53-13.5 23.53-27 0-13.49-9.81-27-23.53-27zM497.97-50.33C257.18-50.33 63.65 145.46 63.65 384S257.18 818.33 497.97 818.33c238.54 0 432.08-195.78 432.08-434.33 0-15.75-13.5-27-27-27s-27 13.5-27 27c0 209.29-168.78 378.07-378.07 378.07S119.91 593.29 119.91 384s168.78-378.07 378.07-378.07c38.26 0 78.76 6.75 114.77 18 15.75 4.5 31.51-4.5 36.01-18 4.5-15.75-4.5-31.51-18-36.01-45.02-13.49-87.78-20.25-132.79-20.25zM743.26 68.95h-18c-40.51 4.5-78.76 24.75-103.52 58.51-24.75 33.76-38.26 74.26-33.76 114.77 4.5 40.51 24.75 78.76 58.51 103.52C714 399.76 810.77 388.51 864.78 321s42.76-164.28-24.75-218.29c-27-22.51-60.76-33.76-96.77-33.76z m0 254.29c-22.5 0-42.76-6.75-60.76-22.5-20.25-15.75-33.76-40.51-36.01-67.51-2.25-27 4.5-51.76 20.25-72.01 15.75-20.25 40.51-33.76 67.51-36.01 27-2.25 51.76 4.5 72.01 20.25 42.76 33.76 49.51 96.77 15.75 139.52-20.24 24.76-49.49 38.26-78.75 38.26zM932.3-39.07c-9 0-15.75 4.5-22.5 11.25L801.77 109.45c-9 11.25-6.75 29.26 4.5 40.51 11.25 9 29.26 6.75 40.51-4.5L954.8 8.18c9-11.25 6.75-29.26-4.5-40.51-6.75-6.74-11.25-6.74-18-6.74z"  horiz-adv-x="1024" />

    
    <glyph glyph-name="YE5xuqiutongji" unicode="&#59029;" d="M117.529311-7.296707H905.734693a20.009883 20.009883 0 0 1 19.595885 20.331881 19.825884 19.825884 0 0 1-19.595885 19.365886H137.171196V755.792822a19.687885 19.687885 0 1 1-39.375769 0v-742.941647a20.009883 20.009883 0 0 1 19.549885-20.331881zM286.118324 448.79062a20.745878 20.745878 0 0 1 20.653879-20.883877h503.605049a20.745878 20.745878 0 0 1 20.699878 20.883877v20.837878a20.745878 20.745878 0 0 1-20.699878 20.883878H306.634203a20.745878 20.745878 0 0 1-20.653879-20.883878v-20.837878z m20.653879 132.157226h365.743856a20.745878 20.745878 0 0 1 20.699879 20.837878v20.837878a20.745878 20.745878 0 0 1-20.699879 20.883877H306.634203a20.745878 20.745878 0 0 1-20.653879-20.883877v-20.975877a20.699879 20.699879 0 0 1 20.653879-20.837878z m-20.653879-285.198329a20.745878 20.745878 0 0 1 20.653879-20.837878h253.504514a20.791878 20.791878 0 0 1 20.745879 20.837878v20.699879a20.837878 20.837878 0 0 1-20.745879 20.883877H306.634203a20.745878 20.745878 0 0 1-20.653879-20.883877v-20.883878z m425.635506-170.613V179.784197a34.1318 34.1318 0 0 0 26.863842 30.819819h66.975608z"  horiz-adv-x="1024" />

    
    <glyph glyph-name="xuqiu" unicode="&#59175;" d="M355.328724 328.201582a52.031122 52.031122 0 1 0 39.263337 7.423874 52.383116 52.383116 0 0 0-39.263337-7.423874z m53.151103 196.604682a52.511114 52.511114 0 1 0 40.86331-61.694959 52.415115 52.415115 0 0 0-40.895309 61.694959z m91.422457 138.621661a52.031122 52.031122 0 1 0 7.423875-39.263338 52.415115 52.415115 0 0 0-7.455874 39.263338zM1048.373029 469.799192l-246.747836-377.593628c-15.615736-24.159592-106.6542-157.213347-172.061097-193.628732a190.268789 190.268789 0 0 0-193.980726 0L49.79788 168.396278C-0.345274 216.715463-10.393105 289.930227 9.670557 363.88098l14.879749 46.81521 108.798164-74.334746s125.245886-87.71052 168.733152-111.486119c49.439166-29.343505 169.085147-88.446507 169.085147-88.446507a121.149956 121.149956 0 0 1-21.183642-102.55827 78.782671 78.782671 0 0 1 20.447655-30.847479 88.446507 88.446507 0 0 1 45.695228-34.175423c71.71079-25.279573 173.181078 128.957824 173.181078 128.957824L1018.293536 582.757286 531.453752 817.281328 254.21043 394.344465a34.94341 34.94341 0 0 0-41.599298-18.207692c-40.86331 18.591686-12.255793 60.574978-2.975949 74.334745L493.918385 878.2083a82.494608 82.494608 0 0 0 66.526878 16.351724l479.767904-208.860475c135.261717-59.454997 74.334746-117.822012 8.927849-215.900357zM820.472875 473.895123l-136.765692 63.550928a47.199204 47.199204 0 0 0-22.655618 61.694958 46.463216 46.463216 0 0 0 61.694959 22.655618l137.885673-59.83899a46.463216 46.463216 0 0 0 22.655618-61.694959v-2.239962a47.199204 47.199204 0 0 0-62.046953-22.655618z m-99.198326-146.429529l-133.789743 68.73484a47.99919 47.99919 0 0 0 43.839261 85.118564l133.789742-67.998853a46.623213 46.623213 0 1 0-42.751279-82.878601z m-99.58232-147.54951l-131.933774 74.334746a46.463216 46.463216 0 0 0-18.591686 63.166934v1.855968a46.463216 46.463216 0 0 0 63.166934 18.591687l134.141737-73.214765a46.463216 46.463216 0 0 0 18.207692-63.166934v-2.239962a46.81521 46.81521 0 0 0-63.550927-18.207693z"  horiz-adv-x="1121" />

    
    <glyph glyph-name="xiangmuchaxun" unicode="&#59186;" d="M109.714286 237.714286a36.571429 36.571429 0 0 0-36.571429 36.571428V457.142857a36.571429 36.571429 0 0 0 73.142857 0v-182.857143a36.571429 36.571429 0 0 0-36.571428-36.571428z m804.571428-365.714286h-731.428571c-60.489143 0-109.714286 48.859429-109.714286 108.982857V54.857143a36.571429 36.571429 0 1 0 73.142857 0v-73.874286c0-19.821714 16.384-35.84 36.571429-35.84h731.428571a36.571429 36.571429 0 0 1 36.571429 36.571429v731.428571a36.571429 36.571429 0 0 1-36.571429 36.571429h-731.428571c-21.211429 0-36.571429-11.629714-36.571429-19.456V676.571429a36.571429 36.571429 0 0 0-73.142857 0v53.686857C73.142857 781.312 122.368 822.857143 182.857143 822.857143h731.428571c60.489143 0 109.714286-49.225143 109.714286-109.714286v-731.428571c0-60.489143-49.225143-109.714286-109.714286-109.714286z m-136.192 262.729143a37.156571 37.156571 0 1 0-53.613714-51.346286L635.684571 175.762286c-1.462857 1.536-2.048 3.437714-3.218285 5.12a36.571429 36.571429 0 0 0-13.165715 10.24 37.083429 37.083429 0 0 0 6.290286 52.077714 130.048 130.048 0 0 1-80.091428 232.301714c-71.68 0-129.901714-58.221714-129.901715-129.901714 0-64.146286 51.565714-120.832 117.394286-128.950857a37.083429 37.083429 0 1 0-9.142857-73.654857c-104.009143 12.873143-182.491429 99.986286-182.491429 202.605714a204.434286 204.434286 0 0 0 204.141715 204.214857 204.434286 204.434286 0 0 0 204.214857-204.214857c0-48.859429-17.261714-94.939429-47.981715-131.291429l76.361143-79.579428zM146.285714 530.285714H36.571429a36.571429 36.571429 0 0 0 0 73.142857H146.285714a36.571429 36.571429 0 0 0 0-73.142857z m0-402.285714H36.571429a36.571429 36.571429 0 1 0 0 73.142857H146.285714a36.571429 36.571429 0 1 0 0-73.142857z"  horiz-adv-x="1024" />

    
    <glyph glyph-name="wodexiangmu" unicode="&#59301;" d="M928 121.6h-128c-19.2 0-38.4 19.2-38.4 38.4v128c0 19.2 19.2 38.4 38.4 38.4h128c19.2 0 38.4-19.2 38.4-38.4v-128c0-19.2-12.8-38.4-38.4-38.4z m-108.8 51.2h102.4V275.2h-102.4v-102.4zM684.8 121.6h-128c-19.2 0-38.4 19.2-38.4 38.4v128c0 19.2 19.2 38.4 38.4 38.4h128c19.2 0 38.4-19.2 38.4-38.4v-128c0-19.2-19.2-38.4-38.4-38.4z m-115.2 51.2h102.4V275.2H569.6v-102.4zM928-121.6h-128c-19.2 0-38.4 19.2-38.4 38.4v128c0 19.2 19.2 38.4 38.4 38.4h128c19.2 0 38.4-19.2 38.4-38.4v-128c0-19.2-12.8-38.4-38.4-38.4z m-108.8 51.2h102.4v102.4h-102.4v-102.4zM684.8-121.6h-128c-19.2 0-38.4 19.2-38.4 38.4v128c0 19.2 19.2 38.4 38.4 38.4h128c19.2 0 38.4-19.2 38.4-38.4v-128c0-19.2-19.2-38.4-38.4-38.4z m-115.2 51.2h102.4v102.4H569.6v-102.4zM358.4 313.6h-12.8c-108.8 44.8-185.6 153.6-185.6 275.2C160 755.2 294.4 889.6 460.8 889.6s300.8-134.4 300.8-300.8c0-12.8-12.8-25.6-25.6-25.6s-25.6 12.8-25.6 25.6C710.4 723.2 601.6 838.4 460.8 838.4S211.2 729.6 211.2 588.8c0-102.4 57.6-192 153.6-230.4 12.8 0 19.2-19.2 12.8-32 0-6.4-12.8-12.8-19.2-12.8zM32-121.6c-12.8 0-25.6 12.8-25.6 25.6 0 211.2 140.8 396.8 345.6 454.4 12.8 0 25.6-6.4 32-19.2 0-12.8-6.4-25.6-19.2-32-179.2-51.2-307.2-217.6-307.2-403.2 0-12.8-12.8-25.6-25.6-25.6z"  horiz-adv-x="1024" />

    
    <glyph glyph-name="xiangmutongji" unicode="&#59024;" d="M224 320c17.664 0 32-14.336 32-32v-192a32 32 0 0 0-64 0v192c0 17.664 14.336 32 32 32z m192 128c17.664 0 32-14.336 32-32v-320a32 32 0 0 0-64 0v320c0 17.664 14.336 32 32 32z m174.250667 68.693333l-170.666667 113.834667-173.568-164.864a32 32 0 0 0-44.032 46.421333l192 182.442667a32 32 0 0 0 39.765333 3.413333L603.904 584.533333l173.397333 174.08a32 32 0 1 0 45.397334-45.226666L630.613333 520.789333a32 32 0 0 0-40.448-4.096z m17.749333-196.693333c17.664 0 32-14.336 32-32v-192a32 32 0 0 0-64 0v192c0 17.664 14.336 32 32 32z m192 192c17.664 0 32-14.336 32-32v-384a32 32 0 0 0-64 0v384c0 17.664 14.336 32 32 32zM128 896h768A128 128 0 0 0 1024 768v-768a128 128 0 0 0-128-128h-768A128 128 0 0 0 0 0v768A128 128 0 0 0 128 896z m0-64a64 64 0 0 1-64-64v-768c0-35.328 28.672-64 64-64h768a64 64 0 0 1 64 64v768a64 64 0 0 1-64 64h-768z"  horiz-adv-x="1024" />

    
    <glyph glyph-name="xiangmukanban" unicode="&#58899;" d="M267.947 176.356H85.333a42.667 42.667 0 0 0-42.666 42.666V747.52a42.667 42.667 0 0 0 42.666 42.667h654.223a42.098 42.098 0 0 0 42.666-42.667v-188.871a42.667 42.667 0 0 0-85.333 0V704.853H128V261.69h139.947a42.667 42.667 0 0 0 0-85.333zM938.667-22.187H284.444a42.098 42.098 0 0 0-42.666 42.667V548.978a42.098 42.098 0 0 0 42.666 42.666h654.223a42.667 42.667 0 0 0 42.666-42.666V20.48a42.667 42.667 0 0 0-42.666-42.667z m-609.85 85.334h568.89V506.31h-568.89zM422.116 164.978a42.667 42.667 0 0 0-23.894 76.23L537.6 354.988a42.098 42.098 0 0 0 47.787 3.982l113.777-63.716a42.667 42.667 0 0 0 15.93-56.889 42.098 42.098 0 0 0-56.89-15.928l-89.315 47.786-113.778-94.435a44.373 44.373 0 0 0-32.995-10.81zM673.564 213.333a42.667 42.667 0 0 0-27.306 75.663L775.396 393.67a42.667 42.667 0 0 0 54.044-66.56L700.302 223.004a40.96 40.96 0 0 0-26.738-9.67z"  horiz-adv-x="1024" />

    
    <glyph glyph-name="xiangmuxitong" unicode="&#58916;" d="M512.32044-127.3604a115.767645 115.767645 0 0 0-56.284822 14.710806L110.011883 86.905684A111.290443 111.290443 0 0 0 53.727061 184.124922V583.875078a111.930044 111.930044 0 0 0 55.645221 97.219238L456.035618 881.289194A112.569644 112.569644 0 0 0 565.40726 881.289194l346.663336-200.194878a111.930044 111.930044 0 0 0 55.645222-97.219238v-399.750156a111.930044 111.930044 0 0 0-55.645222-97.219238L565.40726-113.289194a115.128045 115.128045 0 0 0-53.08682-14.071206z m0 928.059963a17.908807 17.908807 0 0 1-8.314804 0L157.981901 597.946284a16.629606 16.629606 0 0 1-8.314803-14.071206v-399.750156a16.629606 16.629606 0 0 1 8.314803-14.071206L501.447235-30.141162a17.908807 17.908807 0 0 1 15.990007 0l346.663335 200.194878a15.990006 15.990006 0 0 1 7.675203 14.071206V583.875078a15.990006 15.990006 0 0 1-7.675203 14.071206L519.995643 798.141162a17.269207 17.269207 0 0 1-7.675203 1.918801zM512.32044 383.6802m-191.880075 0a191.880075 191.880075 0 1 1 383.76015 0 191.880075 191.880075 0 1 1-383.76015 0Z"  horiz-adv-x="1024" />

    
    <glyph glyph-name="xiangmu" unicode="&#58897;" d="M802.133 759.467C793.6 761.6 787.2 761.6 778.667 761.6h-588.8 588.8c8.533 0 17.066 0 23.466-2.133z m27.734-8.534c-2.134 0-2.134 2.134-4.267 2.134 2.133 0 4.267-2.134 4.267-2.134z m49.066-40.533c-2.133 2.133-4.266 6.4-6.4 8.533 2.134-4.266 4.267-6.4 6.4-8.533zM921.6 64H891.733V663.467c0 8.533 0 14.933-2.133 23.466 2.133-6.4 2.133-14.933 2.133-23.466V64H921.6z m19.2 6.4c-2.133-2.133-6.4-2.133-8.533-4.267 2.133 2.134 6.4 2.134 8.533 4.267z m49.067 797.867c-21.334 17.066-49.067 25.6-76.8 25.6H245.333c-29.866 0-57.6-8.534-76.8-25.6-21.333-19.2-34.133-44.8-34.133-70.4v-34.134h-21.333c-29.867 0-57.6-8.533-76.8-25.6C12.8 716.8 0 691.2 0 663.467v-693.334c0-27.733 12.8-53.333 34.133-70.4 21.334-17.066 49.067-25.6 76.8-25.6h665.6c29.867 0 57.6 8.534 76.8 25.6 21.334 19.2 36.267 44.8 36.267 70.4v34.134h19.2c29.867 0 57.6 8.533 76.8 25.6 21.333 19.2 34.133 44.8 34.133 70.4V795.733c4.267 27.734-8.533 53.334-29.866 72.534z m-155.734-896c0-21.334-25.6-38.4-55.466-38.4h-665.6c-29.867 0-55.467 17.066-55.467 38.4v691.2c0 21.333 25.6 38.4 55.467 38.4H778.667c29.866 0 55.466-17.067 55.466-38.4v-691.2zM966.4 104.533c0-8.533-4.267-17.066-10.667-23.466l-2.133-2.134c-2.133-2.133-4.267-4.266-6.4-4.266 0 0-2.133 0-2.133-2.134s-2.134 0-2.134-2.133c0 0-2.133 0-2.133-2.133h-2.133c-2.134-2.134-6.4-2.134-8.534-4.267H928h-2.133c-2.134 0-4.267 0-6.4-2.133H889.6v601.6c0 8.533 0 14.933-2.133 23.466 0 2.134 0 2.134-2.134 4.267 0 2.133 0 2.133-2.133 4.267 0 2.133 0 2.133-2.133 4.266 0 2.134-2.134 2.134-2.134 4.267-2.133 2.133-2.133 4.267-4.266 6.4-2.134 2.133-4.267 6.4-6.4 8.533-2.134 4.267-6.4 6.4-8.534 10.667-2.133 2.133-4.266 4.267-8.533 6.4l-4.267 4.267-2.133 2.133c-2.133 0-2.133 2.133-4.267 2.133-4.266 2.134-10.666 6.4-14.933 8.534-2.133 0-2.133 2.133-4.267 2.133-2.133 0-4.266 2.133-6.4 2.133H812.8c-4.267 0-6.4 2.134-10.667 2.134h-6.4C787.2 761.6 780.8 761.6 772.267 761.6h-582.4v34.133c0 4.267 0 8.534 2.133 12.8 2.133 4.267 4.267 6.4 8.533 10.667 10.667 10.667 25.6 17.067 44.8 17.067h665.6c29.867 0 55.467-17.067 55.467-38.4v-693.334z m-817.067 537.6h428.8v-57.6h-428.8v57.6zM672 612.267c0 17.066 12.8 29.866 29.867 32 17.066 0 29.866-12.8 32-29.867v-2.133c0-17.067-12.8-29.867-29.867-32-17.067 0-29.867 12.8-32 29.866v2.134zM57.6 533.333h776.533v-57.6H57.6v57.6z"  horiz-adv-x="1024" />

    
    </font>
</defs>
</svg>
